<svg width="500" height="500" viewBox="0 0 500 500" fill="none" xmlns="http://www.w3.org/2000/svg">
<path d="M452.795 213.808C466.536 213.127 477.122 201.435 476.441 187.695C475.759 173.954 464.067 163.368 450.327 164.049C436.586 164.731 426 176.423 426.682 190.163C427.363 203.904 439.055 214.49 452.795 213.808Z" fill="#EBEBEB"/>
<path fill-rule="evenodd" clip-rule="evenodd" d="M448.18 198.81C447.52 198.4 446.95 197.81 446.06 197.88C445.73 197.88 445.8 197.63 445.8 197.45C445.8 194.117 445.8 190.8 445.8 187.5C445.8 187.25 445.8 187.06 446.08 186.92C448.61 185.65 449.71 183.13 451.26 180.98C452.056 179.912 452.629 178.695 452.945 177.402C453.261 176.108 453.314 174.764 453.1 173.45C453 172.71 453.35 172.37 454.02 172.22C454.358 172.103 454.724 172.099 455.064 172.207C455.405 172.315 455.701 172.53 455.91 172.82C456.637 174.173 457.128 175.641 457.36 177.16C457.351 178.417 457.197 179.669 456.9 180.89C456.78 181.8 456.57 182.7 456.4 183.63C456.62 183.79 456.88 183.7 457.12 183.71H465.52C466.71 183.71 467.28 184.05 467.45 184.83C467.539 185.313 467.469 185.811 467.248 186.25C467.028 186.689 466.671 187.043 466.23 187.26C466.02 187.37 465.64 187.26 465.61 187.6C465.58 187.94 465.98 187.9 466.17 188.04C467.17 188.73 467 190.17 465.82 191.04C465.54 191.24 464.99 191.15 464.98 191.56C464.97 191.97 465.49 191.89 465.72 192.12C465.9 192.353 466.024 192.626 466.08 192.915C466.137 193.204 466.126 193.503 466.047 193.787C465.969 194.072 465.825 194.334 465.628 194.553C465.43 194.772 465.185 194.942 464.91 195.05C464.739 195.101 464.572 195.165 464.41 195.24C464.27 195.33 464.14 195.44 464.41 195.63C464.697 195.762 464.941 195.973 465.111 196.239C465.282 196.505 465.373 196.814 465.373 197.13C465.373 197.446 465.282 197.755 465.111 198.021C464.941 198.287 464.697 198.498 464.41 198.63L464.05 198.9C463.604 199.163 463.085 199.275 462.57 199.22H449.34C449.129 199.234 448.917 199.205 448.718 199.134C448.518 199.064 448.335 198.953 448.18 198.81Z" fill="white"/>
<path fill-rule="evenodd" clip-rule="evenodd" d="M435.68 192.96C435.68 190.85 435.68 188.74 435.68 186.63C435.68 186.21 435.68 186 436.25 186C438.823 186 441.393 186 443.96 186C444.47 186 444.54 186.17 444.54 186.62C444.54 190.86 444.54 195.1 444.54 199.35C444.54 199.89 444.4 200.04 443.86 200.03C441.36 200.03 438.867 200.03 436.38 200.03C435.76 200.03 435.67 199.82 435.68 199.27C435.7 197.2 435.68 195.07 435.68 192.96Z" fill="white"/>
<path d="M165.51 143.06H51.34V69.8599H165.51V143.06ZM52.34 142.06H164.51V70.8599H52.34V142.06Z" fill="#EBEBEB"/>
<path d="M165.51 80.4599H51.34V69.8599H165.51V80.4599ZM52.34 79.4599H164.51V70.8599H52.34V79.4599Z" fill="#EBEBEB"/>
<path d="M60.84 75.1998C60.84 75.6789 60.6978 76.1471 60.4315 76.5453C60.1651 76.9435 59.7866 77.2537 59.3438 77.4365C58.901 77.6194 58.4139 77.6667 57.9442 77.5725C57.4745 77.4784 57.0433 77.2469 56.7053 76.9074C56.3672 76.568 56.1375 76.1359 56.0453 75.6658C55.953 75.1957 56.0024 74.7088 56.1871 74.2668C56.3718 73.8247 56.6835 73.4475 57.0828 73.1828C57.4821 72.9181 57.951 72.7778 58.43 72.7798C58.7473 72.7798 59.0615 72.8425 59.3546 72.9642C59.6476 73.0859 59.9138 73.2644 60.1377 73.4892C60.3616 73.7141 60.5389 73.9809 60.6594 74.2745C60.78 74.568 60.8413 74.8825 60.84 75.1998V75.1998Z" fill="#C7C7C7"/>
<path d="M70.69 75.1998C70.688 75.676 70.545 76.141 70.279 76.536C70.013 76.931 69.6359 77.2383 69.1953 77.4192C68.7548 77.6001 68.2705 77.6464 67.8037 77.5523C67.3369 77.4581 66.9084 77.2278 66.5723 76.8904C66.2363 76.5529 66.0078 76.1235 65.9156 75.6563C65.8234 75.1891 65.8717 74.705 66.0544 74.2652C66.2371 73.8254 66.546 73.4496 66.9421 73.1853C67.3382 72.9209 67.8038 72.7798 68.28 72.7798C68.5973 72.7798 68.9115 72.8424 69.2046 72.9642C69.4976 73.0859 69.7637 73.2643 69.9877 73.4892C70.2116 73.714 70.3889 73.9809 70.5094 74.2744C70.6299 74.568 70.6913 74.8825 70.69 75.1998V75.1998Z" fill="#EBEBEB"/>
<path d="M78.14 77.6398C79.471 77.6398 80.55 76.5608 80.55 75.2298C80.55 73.8988 79.471 72.8198 78.14 72.8198C76.809 72.8198 75.73 73.8988 75.73 75.2298C75.73 76.5608 76.809 77.6398 78.14 77.6398Z" fill="#38CBA5"/>
<path d="M42.38 232.7C41.2114 227.914 41.4882 222.889 43.1755 218.26C44.8628 213.631 47.8847 209.607 51.8592 206.696C55.8337 203.785 60.5821 202.117 65.5042 201.905C70.4262 201.692 75.3008 202.944 79.5114 205.501C83.7221 208.059 87.0798 211.808 89.1599 216.274C91.24 220.74 91.9491 225.722 91.1975 230.591C90.446 235.46 88.2675 239.997 84.9376 243.628C81.6077 247.259 77.2759 249.821 72.49 250.99C69.3119 251.768 66.0118 251.911 62.7782 251.413C59.5446 250.914 56.4409 249.783 53.6446 248.085C50.8482 246.386 48.4141 244.153 46.4812 241.513C44.5484 238.874 43.1547 235.879 42.38 232.7V232.7Z" fill="#EBEBEB"/>
<path d="M79.2899 229.9C75.5299 237.49 66.5699 241.99 66.5699 241.99C66.5699 241.99 57.5699 237.49 53.8599 229.9C50.7299 223.57 52.7099 216.73 57.6599 215.23C64.7499 213.09 66.5699 225.44 66.5699 225.44C66.5699 225.44 68.3899 213.09 75.4899 215.23C80.4399 216.73 82.4199 223.57 79.2899 229.9Z" fill="white"/>
<path d="M390.21 86.5899C386.27 89.0137 381.735 90.2969 377.11 90.2969C372.484 90.2969 367.95 89.0137 364.01 86.5899C359.401 83.7399 355.846 79.4646 353.886 74.4122C351.926 69.3599 351.667 63.8062 353.149 58.5933C354.63 53.3805 357.771 48.7929 362.095 45.5264C366.419 42.2599 371.691 40.4927 377.11 40.4927C382.529 40.4927 387.801 42.2599 392.125 45.5264C396.449 48.7929 399.59 53.3805 401.071 58.5933C402.553 63.8062 402.294 69.3599 400.334 74.4122C398.373 79.4646 394.819 83.7399 390.21 86.5899V86.5899Z" fill="#EBEBEB"/>
<path d="M377.11 70.1297C381.296 70.1297 384.69 66.736 384.69 62.5497C384.69 58.3634 381.296 54.9697 377.11 54.9697C372.924 54.9697 369.53 58.3634 369.53 62.5497C369.53 66.736 372.924 70.1297 377.11 70.1297Z" fill="white"/>
<path d="M390.21 83.4599V86.5899C386.27 89.0136 381.736 90.2969 377.11 90.2969C372.484 90.2969 367.95 89.0136 364.01 86.5899V83.4599C364.01 79.9855 365.39 76.6535 367.847 74.1968C370.304 71.74 373.636 70.3599 377.11 70.3599C380.584 70.3599 383.916 71.74 386.373 74.1968C388.83 76.6535 390.21 79.9855 390.21 83.4599Z" fill="white"/>
<path d="M64.11 402.02L110.61 401.78L157.12 401.69L250.12 401.52L343.12 401.69L389.63 401.78L436.13 402.02L389.63 402.26L343.12 402.35L250.12 402.52L157.12 402.35L110.61 402.26L64.11 402.02Z" fill="#263238"/>
<path d="M146.77 459.63C209.631 459.63 260.59 452.292 260.59 443.24C260.59 434.188 209.631 426.85 146.77 426.85C83.9089 426.85 32.95 434.188 32.95 443.24C32.95 452.292 83.9089 459.63 146.77 459.63Z" fill="#EBEBEB"/>
<path d="M363.9 459.63C426.761 459.63 477.72 452.292 477.72 443.24C477.72 434.188 426.761 426.85 363.9 426.85C301.039 426.85 250.08 434.188 250.08 443.24C250.08 452.292 301.039 459.63 363.9 459.63Z" fill="#EBEBEB"/>
<path d="M419.96 101.09H84.4399V350.78H419.96V101.09Z" fill="#37474F"/>
<path d="M403.02 117.33H101.39V296.63H403.02V117.33Z" fill="white"/>
<path d="M419.96 313.95H84.4399V350.78H419.96V313.95Z" fill="#C7C7C7"/>
<path d="M323.76 395.79H180.65V407.75H323.76V395.79Z" fill="#37474F"/>
<path d="M306.71 395.8H197.69L200.46 375.04L200.59 374.06L200.85 372.12L200.98 371.14L201.24 369.19L201.28 368.89L201.37 368.21L201.64 366.26L201.76 365.29L203.7 350.79H300.7L302.52 364.46L302.62 365.12L302.92 367.39L303 368.05L303.12 368.89L303.31 370.32L303.39 370.97L303.69 373.25L303.79 373.9L306.71 395.8Z" fill="#C7C7C7"/>
<path d="M403.02 117.33H101.39V127.03H403.02V117.33Z" fill="#263238"/>
<path d="M109.12 122.2C109.12 122.677 108.978 123.143 108.713 123.54C108.448 123.937 108.071 124.245 107.63 124.428C107.189 124.61 106.704 124.657 106.236 124.563C105.768 124.469 105.339 124.239 105.002 123.901C104.666 123.563 104.437 123.132 104.345 122.664C104.253 122.196 104.302 121.711 104.486 121.271C104.67 120.831 104.981 120.455 105.378 120.191C105.776 119.928 106.243 119.788 106.72 119.79C107.036 119.79 107.349 119.852 107.641 119.974C107.933 120.095 108.198 120.273 108.421 120.497C108.644 120.72 108.82 120.986 108.94 121.279C109.06 121.571 109.121 121.884 109.12 122.2V122.2Z" fill="#C7C7C7"/>
<path d="M118.91 122.2C118.91 122.677 118.768 123.143 118.503 123.54C118.238 123.937 117.861 124.245 117.42 124.428C116.979 124.61 116.494 124.657 116.026 124.563C115.558 124.469 115.129 124.239 114.792 123.901C114.456 123.563 114.227 123.132 114.135 122.664C114.043 122.196 114.092 121.711 114.276 121.271C114.46 120.831 114.771 120.455 115.168 120.191C115.566 119.928 116.033 119.788 116.51 119.79C116.826 119.79 117.139 119.852 117.431 119.974C117.723 120.095 117.988 120.273 118.211 120.497C118.434 120.72 118.61 120.986 118.73 121.279C118.85 121.571 118.911 121.884 118.91 122.2V122.2Z" fill="white"/>
<path d="M128.74 122.2C128.74 122.677 128.599 123.143 128.334 123.539C128.069 123.935 127.693 124.244 127.252 124.427C126.812 124.609 126.327 124.657 125.86 124.564C125.392 124.471 124.963 124.241 124.626 123.904C124.289 123.567 124.059 123.138 123.966 122.67C123.873 122.203 123.921 121.718 124.103 121.278C124.286 120.837 124.595 120.461 124.991 120.196C125.387 119.931 125.853 119.79 126.33 119.79C126.969 119.79 127.582 120.044 128.034 120.496C128.486 120.948 128.74 121.561 128.74 122.2V122.2Z" fill="#38CBA5"/>
<path d="M258.17 329.89C258.168 331.093 257.809 332.269 257.138 333.268C256.468 334.267 255.516 335.045 254.403 335.503C253.29 335.96 252.066 336.078 250.887 335.84C249.707 335.601 248.625 335.019 247.777 334.165C246.929 333.311 246.353 332.225 246.122 331.044C245.892 329.863 246.017 328.64 246.482 327.53C246.948 326.42 247.731 325.473 248.735 324.809C249.739 324.145 250.917 323.794 252.12 323.8C253.729 323.808 255.269 324.453 256.403 325.595C257.537 326.736 258.173 328.281 258.17 329.89Z" fill="#37474F"/>
<path d="M303.12 368.89H201.28L201.37 368.21L201.64 366.26L201.76 365.29L203.7 350.79H300.7L302.52 364.46L302.62 365.12L302.92 367.39L303 368.05L303.12 368.89Z" fill="#A6A6A6"/>
<path d="M403.02 127.02H101.39V167.21H403.02V127.02Z" fill="#38CBA5"/>
<path d="M385.56 280.85H263.68V195.2H385.56V280.85ZM264.68 279.85H384.56V196.2H264.68V279.85Z" fill="#EBEBEB"/>
<path d="M263.433 194.443L262.863 195.263L383.87 279.378L384.44 278.558L263.433 194.443Z" fill="#EBEBEB"/>
<path d="M264.47 280.76L263.89 279.94C265.05 279.13 380.01 198.88 384.76 195.3L385.36 196.1C380.6 199.69 265.63 279.95 264.47 280.76Z" fill="#EBEBEB"/>
<path d="M309.43 127.02H194.97V162.12H309.43V127.02Z" fill="#263238"/>
<path d="M242.06 178.26H162.65V179.88H242.06V178.26Z" fill="#EBEBEB"/>
<path d="M224.02 182.34H162.65V183.96H224.02V182.34Z" fill="#EBEBEB"/>
<path d="M237.3 186.42H162.65V188.04H237.3V186.42Z" fill="#EBEBEB"/>
<path d="M243.83 190.5H162.65V192.12H243.83V190.5Z" fill="#EBEBEB"/>
<path d="M204.74 194.58H162.65V196.2H204.74V194.58Z" fill="#EBEBEB"/>
<path d="M242.31 198.67H162.65V200.29H242.31V198.67Z" fill="#EBEBEB"/>
<path d="M228.96 202.75H162.65V204.37H228.96V202.75Z" fill="#EBEBEB"/>
<path d="M246 206.83H162.65V208.45H246V206.83Z" fill="#EBEBEB"/>
<path d="M242.31 210.91H162.65V212.53H242.31V210.91Z" fill="#EBEBEB"/>
<path d="M246 214.99H162.65V216.61H246V214.99Z" fill="#EBEBEB"/>
<path d="M131.05 138.01H119.34V139.63H131.05V138.01Z" fill="white"/>
<path d="M131.05 142.09H119.34V143.71H131.05V142.09Z" fill="white"/>
<path d="M131.05 146.17H119.34V147.79H131.05V146.17Z" fill="white"/>
<path d="M385.06 178.26H264.18V187.23H385.06V178.26Z" fill="#38CBA5"/>
<path d="M157.69 178.25H119.34V216.61H157.69V178.25Z" fill="#A6A6A6"/>
<path d="M138.52 197.43C142.347 197.43 145.45 194.327 145.45 190.5C145.45 186.672 142.347 183.57 138.52 183.57C134.693 183.57 131.59 186.672 131.59 190.5C131.59 194.327 134.693 197.43 138.52 197.43Z" fill="white"/>
<path d="M150.5 209.63V216.63H126.5V209.63C126.5 206.447 127.764 203.395 130.015 201.145C132.265 198.894 135.317 197.63 138.5 197.63C141.683 197.63 144.735 198.894 146.985 201.145C149.236 203.395 150.5 206.447 150.5 209.63Z" fill="white"/>
<path d="M218.92 154.05V147.05C218.919 146.963 218.934 146.878 218.967 146.798C218.999 146.718 219.046 146.645 219.107 146.584C219.167 146.522 219.239 146.473 219.319 146.44C219.398 146.407 219.484 146.39 219.57 146.39H221.26C221.859 146.39 222.434 146.628 222.858 147.052C223.282 147.475 223.52 148.05 223.52 148.65C223.521 149.141 223.359 149.619 223.06 150.01C223.53 150.301 223.893 150.737 224.092 151.252C224.292 151.768 224.318 152.334 224.166 152.866C224.015 153.398 223.694 153.865 223.252 154.198C222.811 154.531 222.273 154.71 221.72 154.71H219.57C219.484 154.71 219.398 154.693 219.319 154.659C219.239 154.626 219.167 154.577 219.107 154.516C219.046 154.454 218.999 154.381 218.967 154.301C218.934 154.221 218.919 154.136 218.92 154.05V154.05ZM220.23 149.6H221.23C221.485 149.584 221.724 149.472 221.899 149.286C222.073 149.1 222.17 148.855 222.17 148.6C222.17 148.35 222.071 148.111 221.895 147.935C221.718 147.759 221.479 147.66 221.23 147.66H220.23V149.6ZM220.23 153.38H221.72C221.881 153.38 222.041 153.348 222.189 153.286C222.338 153.224 222.473 153.133 222.586 153.019C222.7 152.904 222.789 152.769 222.85 152.62C222.911 152.47 222.941 152.311 222.94 152.15C222.94 151.825 222.812 151.514 222.583 151.283C222.355 151.053 222.044 150.922 221.72 150.92H220.23V153.38Z" fill="white"/>
<path d="M225.98 154.05V147.05C225.979 146.963 225.994 146.878 226.027 146.798C226.059 146.718 226.106 146.645 226.167 146.584C226.227 146.522 226.299 146.473 226.379 146.44C226.458 146.407 226.544 146.39 226.63 146.39C226.805 146.39 226.973 146.459 227.097 146.583C227.22 146.707 227.29 146.875 227.29 147.05V153.39H230.52C230.694 153.395 230.859 153.468 230.981 153.593C231.102 153.718 231.17 153.885 231.17 154.06C231.167 154.231 231.098 154.395 230.977 154.516C230.855 154.638 230.692 154.707 230.52 154.71H226.63C226.543 154.711 226.457 154.695 226.377 154.662C226.297 154.629 226.224 154.581 226.164 154.519C226.103 154.457 226.055 154.384 226.024 154.303C225.992 154.222 225.977 154.136 225.98 154.05V154.05Z" fill="white"/>
<path d="M238.75 147.42C239.518 148.23 239.946 149.304 239.946 150.42C239.946 151.536 239.518 152.61 238.75 153.42C238.389 153.816 237.951 154.133 237.462 154.351C236.974 154.57 236.445 154.685 235.91 154.69C235.364 154.688 234.824 154.574 234.324 154.356C233.823 154.138 233.373 153.819 233 153.42C232.245 152.603 231.826 151.532 231.826 150.42C231.826 149.308 232.245 148.237 233 147.42C233.37 147.017 233.82 146.697 234.321 146.478C234.822 146.259 235.363 146.148 235.91 146.15C236.446 146.15 236.976 146.263 237.465 146.482C237.955 146.701 238.393 147.02 238.75 147.42V147.42ZM238.6 150.42C238.598 149.65 238.309 148.909 237.79 148.34C237.549 148.076 237.256 147.864 236.929 147.72C236.601 147.575 236.248 147.501 235.89 147.501C235.532 147.501 235.179 147.575 234.851 147.72C234.524 147.864 234.231 148.076 233.99 148.34C233.462 148.903 233.172 149.648 233.18 150.42C233.175 151.188 233.465 151.929 233.99 152.49C234.227 152.76 234.52 152.976 234.847 153.125C235.175 153.273 235.53 153.349 235.89 153.349C236.25 153.349 236.605 153.273 236.933 153.125C237.26 152.976 237.553 152.76 237.79 152.49C238.315 151.929 238.605 151.188 238.6 150.42Z" fill="white"/>
<path d="M241.93 150.44C241.935 149.87 242.053 149.307 242.276 148.783C242.499 148.259 242.823 147.785 243.23 147.386C243.637 146.988 244.118 146.673 244.647 146.461C245.175 146.249 245.74 146.143 246.31 146.15C247.29 146.147 248.244 146.47 249.02 147.07C249.1 147.121 249.168 147.187 249.22 147.266C249.273 147.345 249.308 147.434 249.325 147.527C249.341 147.62 249.337 147.716 249.314 147.807C249.292 147.899 249.25 147.985 249.192 148.06C249.134 148.135 249.061 148.197 248.978 148.242C248.895 148.287 248.803 148.314 248.709 148.321C248.614 148.329 248.519 148.316 248.43 148.285C248.341 148.254 248.259 148.204 248.19 148.14C247.65 147.727 246.99 147.502 246.31 147.5C245.913 147.496 245.52 147.571 245.153 147.72C244.786 147.87 244.451 148.09 244.17 148.37C243.889 148.633 243.666 148.952 243.513 149.305C243.36 149.659 243.281 150.04 243.281 150.425C243.281 150.81 243.36 151.191 243.513 151.544C243.666 151.898 243.889 152.216 244.17 152.48C244.451 152.759 244.786 152.98 245.153 153.129C245.52 153.278 245.913 153.353 246.31 153.35C246.883 153.343 247.445 153.188 247.94 152.9V151.27H246.24C246.06 151.267 245.889 151.195 245.762 151.068C245.635 150.941 245.563 150.769 245.56 150.59C245.56 150.501 245.578 150.414 245.612 150.332C245.646 150.251 245.697 150.177 245.76 150.116C245.824 150.054 245.899 150.006 245.981 149.974C246.064 149.942 246.152 149.927 246.24 149.93H248.61C248.698 149.927 248.786 149.942 248.869 149.974C248.951 150.006 249.026 150.054 249.09 150.116C249.153 150.177 249.203 150.251 249.238 150.332C249.272 150.414 249.29 150.501 249.29 150.59V153.2C249.295 153.266 249.295 153.333 249.29 153.4V153.46C249.245 153.578 249.164 153.679 249.06 153.75C248.287 154.348 247.337 154.671 246.36 154.67C245.791 154.684 245.225 154.586 244.694 154.381C244.163 154.176 243.677 153.869 243.266 153.476C242.854 153.082 242.524 152.612 242.295 152.091C242.066 151.57 241.942 151.009 241.93 150.44V150.44Z" fill="white"/>
<path d="M258.32 151.47H256.85V154.05C256.85 154.225 256.78 154.393 256.657 154.516C256.533 154.64 256.365 154.71 256.19 154.71C256.015 154.71 255.847 154.64 255.723 154.516C255.599 154.393 255.53 154.225 255.53 154.05V147.05C255.53 146.875 255.599 146.707 255.723 146.583C255.847 146.459 256.015 146.39 256.19 146.39H258.32C258.668 146.368 259.016 146.418 259.344 146.536C259.671 146.654 259.971 146.838 260.225 147.076C260.479 147.315 260.682 147.602 260.82 147.922C260.958 148.242 261.03 148.586 261.03 148.935C261.03 149.283 260.958 149.628 260.82 149.947C260.682 150.267 260.479 150.555 260.225 150.793C259.971 151.032 259.671 151.216 259.344 151.334C259.016 151.452 258.668 151.502 258.32 151.48V151.47ZM256.85 150.2H258.32C258.49 150.215 258.662 150.195 258.824 150.14C258.985 150.086 259.134 149.998 259.26 149.883C259.386 149.768 259.487 149.627 259.556 149.471C259.625 149.315 259.661 149.146 259.661 148.975C259.661 148.804 259.625 148.635 259.556 148.479C259.487 148.322 259.386 148.182 259.26 148.067C259.134 147.951 258.985 147.864 258.824 147.809C258.662 147.755 258.49 147.734 258.32 147.75H256.85V150.2Z" fill="white"/>
<path d="M269.02 147.42C269.788 148.23 270.216 149.304 270.216 150.42C270.216 151.536 269.788 152.61 269.02 153.42C268.659 153.816 268.221 154.133 267.732 154.351C267.244 154.57 266.715 154.685 266.18 154.69C265.634 154.688 265.094 154.574 264.594 154.356C264.093 154.138 263.643 153.819 263.27 153.42C262.515 152.603 262.096 151.532 262.096 150.42C262.096 149.308 262.515 148.237 263.27 147.42C263.643 147.021 264.093 146.702 264.594 146.484C265.094 146.265 265.634 146.152 266.18 146.15C266.716 146.15 267.246 146.263 267.736 146.482C268.225 146.701 268.663 147.02 269.02 147.42V147.42ZM268.87 150.42C268.868 149.65 268.579 148.909 268.06 148.34C267.819 148.075 267.526 147.864 267.199 147.72C266.871 147.575 266.518 147.5 266.16 147.5C265.802 147.5 265.449 147.575 265.121 147.72C264.794 147.864 264.501 148.075 264.26 148.34C263.732 148.903 263.442 149.648 263.45 150.42C263.445 151.188 263.735 151.929 264.26 152.49C264.497 152.76 264.79 152.976 265.117 153.124C265.445 153.273 265.8 153.349 266.16 153.349C266.52 153.349 266.875 153.273 267.203 153.124C267.53 152.976 267.823 152.76 268.06 152.49C268.585 151.929 268.875 151.188 268.87 150.42V150.42Z" fill="white"/>
<path d="M272.24 152.64C272.344 152.513 272.493 152.432 272.656 152.415C272.819 152.398 272.983 152.447 273.11 152.55C273.747 153.094 274.544 153.416 275.38 153.47C275.91 153.48 276.43 153.326 276.87 153.03C277.017 152.938 277.141 152.811 277.229 152.662C277.318 152.512 277.37 152.344 277.38 152.17C277.381 152.035 277.342 151.903 277.27 151.79C277.181 151.646 277.061 151.523 276.92 151.43C276.413 151.154 275.861 150.968 275.29 150.88V150.88C274.762 150.79 274.248 150.632 273.76 150.41C273.312 150.213 272.927 149.894 272.65 149.49C272.47 149.188 272.377 148.842 272.38 148.49C272.391 148.147 272.483 147.812 272.648 147.511C272.813 147.211 273.047 146.953 273.33 146.76C273.933 146.338 274.654 146.117 275.39 146.13C276.336 146.189 277.24 146.538 277.98 147.13C278.113 147.219 278.206 147.358 278.237 147.515C278.269 147.672 278.238 147.836 278.15 147.97C278.107 148.039 278.051 148.099 277.985 148.146C277.918 148.192 277.843 148.225 277.764 148.242C277.684 148.259 277.602 148.259 277.522 148.244C277.443 148.228 277.367 148.196 277.3 148.15C276.757 147.705 276.09 147.439 275.39 147.39C274.915 147.379 274.45 147.519 274.06 147.79C273.933 147.873 273.827 147.983 273.749 148.113C273.671 148.243 273.623 148.389 273.61 148.54C273.602 148.656 273.63 148.771 273.69 148.87C273.774 148.995 273.883 149.1 274.01 149.18C274.466 149.454 274.973 149.634 275.5 149.71C276.067 149.803 276.618 149.971 277.14 150.21C277.625 150.421 278.039 150.768 278.33 151.21C278.513 151.511 278.61 151.857 278.61 152.21C278.603 152.574 278.509 152.932 278.335 153.252C278.161 153.572 277.912 153.846 277.61 154.05C276.968 154.505 276.197 154.744 275.41 154.73C274.307 154.669 273.254 154.251 272.41 153.54C272.338 153.494 272.276 153.433 272.228 153.362C272.18 153.291 272.147 153.211 272.131 153.127C272.115 153.042 272.117 152.956 272.135 152.872C272.154 152.788 272.19 152.709 272.24 152.64V152.64Z" fill="white"/>
<path d="M285.34 147.7H283.45V154.05C283.45 154.222 283.381 154.388 283.26 154.51C283.138 154.631 282.972 154.7 282.8 154.7C282.628 154.7 282.462 154.631 282.34 154.51C282.218 154.388 282.15 154.222 282.15 154.05V147.7H280.27C280.096 147.697 279.929 147.627 279.806 147.504C279.683 147.381 279.613 147.214 279.61 147.04C279.609 146.953 279.625 146.866 279.657 146.786C279.69 146.705 279.739 146.632 279.8 146.57C279.862 146.509 279.935 146.46 280.016 146.427C280.096 146.395 280.183 146.379 280.27 146.38H285.34C285.515 146.38 285.683 146.45 285.807 146.573C285.93 146.697 286 146.865 286 147.04C285.997 147.214 285.927 147.381 285.804 147.504C285.681 147.627 285.514 147.697 285.34 147.7V147.7Z" fill="white"/>
<path d="M297.85 157.19H206.54V158.4H297.85V157.19Z" fill="white"/>
<path d="M178.01 222.18H119.34V280.85H178.01V222.18Z" fill="#EBEBEB"/>
<path d="M119.34 263.25H178V222.17H119.34V263.25Z" fill="#EBEBEB"/>
<path d="M126.2 233.85C126.2 234.811 126.485 235.751 127.019 236.55C127.553 237.349 128.312 237.972 129.2 238.34C130.088 238.708 131.065 238.804 132.008 238.616C132.951 238.429 133.817 237.966 134.497 237.286C135.176 236.607 135.639 235.741 135.827 234.798C136.014 233.855 135.918 232.878 135.55 231.99C135.182 231.102 134.559 230.343 133.76 229.809C132.961 229.275 132.021 228.99 131.06 228.99C130.421 228.988 129.789 229.113 129.199 229.357C128.608 229.601 128.072 229.959 127.62 230.41C127.169 230.862 126.811 231.398 126.567 231.988C126.323 232.579 126.199 233.211 126.2 233.85V233.85Z" fill="#DBDBDB"/>
<path d="M145.39 254.32H178.01L161.7 232.21L145.39 254.32Z" fill="#C7C7C7"/>
<path d="M132.6 254.42H159.53L146.07 240.03L132.6 254.42Z" fill="#DBDBDB"/>
<path d="M178 254.4H119.34V263.25H178V254.4Z" fill="#DBDBDB"/>
<path d="M173.85 267.33H123.51V268.95H173.85V267.33Z" fill="white"/>
<path d="M158.39 271.41H123.51V273.03H158.39V271.41Z" fill="white"/>
<path d="M165.93 275.49H123.51V277.11H165.93V275.49Z" fill="white"/>
<path d="M246 222.18H187.33V280.85H246V222.18Z" fill="#EBEBEB"/>
<path d="M187.33 263.25H245.99V222.17H187.33V263.25Z" fill="#DBDBDB"/>
<path d="M216.66 254.42C222.823 254.42 227.82 249.423 227.82 243.26C227.82 237.096 222.823 232.1 216.66 232.1C210.496 232.1 205.5 237.096 205.5 243.26C205.5 249.423 210.496 254.42 216.66 254.42Z" fill="#EBEBEB"/>
<path d="M211.32 237.2V249.32L224.15 243.26L211.32 237.2Z" fill="white"/>
<path d="M241.84 267.33H191.5V268.95H241.84V267.33Z" fill="white"/>
<path d="M226.38 271.41H191.5V273.03H226.38V271.41Z" fill="white"/>
<path d="M233.92 275.49H191.5V277.11H233.92V275.49Z" fill="white"/>
<path d="M385.11 138.01H324.92V147.79H385.11V138.01Z" fill="white"/>
<path d="M385.11 138.01H375.33V147.79H385.11V138.01Z" fill="#263238"/>
<path d="M380.54 141.961L379.639 142.644L382.411 146.302L383.312 145.62L380.54 141.961Z" fill="white"/>
<path d="M381.54 140.44C381.834 140.827 382.007 141.292 382.037 141.777C382.067 142.262 381.952 142.745 381.708 143.165C381.464 143.585 381.101 143.923 380.665 144.137C380.229 144.351 379.739 144.431 379.257 144.367C378.776 144.303 378.324 144.098 377.959 143.777C377.594 143.457 377.331 143.035 377.206 142.566C377.08 142.097 377.095 141.601 377.251 141.141C377.407 140.68 377.695 140.277 378.08 139.98C378.6 139.583 379.256 139.408 379.905 139.494C380.554 139.58 381.142 139.921 381.54 140.44Z" fill="white"/>
<path d="M380.76 141.04C380.939 141.272 381.046 141.552 381.066 141.844C381.086 142.136 381.019 142.428 380.873 142.682C380.727 142.936 380.509 143.141 380.246 143.272C379.984 143.402 379.688 143.451 379.398 143.413C379.107 143.375 378.834 143.252 378.614 143.059C378.394 142.865 378.235 142.611 378.16 142.328C378.084 142.045 378.094 141.746 378.188 141.469C378.283 141.191 378.457 140.948 378.69 140.77C379.001 140.532 379.393 140.427 379.781 140.478C380.169 140.528 380.521 140.73 380.76 141.04V141.04Z" fill="#263238"/>
<path d="M219.95 444.58C218.05 445.21 163.95 445.05 161.85 443.75C161.07 443.26 160.63 435.36 160.38 425.82C160.32 423.76 160.28 421.64 160.24 419.47C160.24 416.91 160.17 414.32 160.15 411.8C160.09 400.49 160.24 390.53 160.24 390.53H195.49V411.8V419.47L195.31 425.82C195.31 425.82 216.01 435.16 218.11 436.82C220.21 438.48 221.84 443.96 219.95 444.58Z" fill="#F7A9A0"/>
<path d="M219.95 444.58C218.05 445.21 163.95 445.05 161.85 443.75C161.07 443.26 160.63 435.36 160.38 425.82C160.32 423.76 160.28 421.64 160.24 419.47C160.24 416.91 160.17 414.32 160.15 411.8H195.47V419.47L195.29 425.82C195.29 425.82 215.99 435.16 218.09 436.82C220.19 438.48 221.84 443.96 219.95 444.58Z" fill="white"/>
<path d="M220.12 444.66C218.89 445.07 195.83 445.15 179.04 444.8C175.15 444.72 171.6 444.61 168.73 444.49C164.78 444.31 162.13 444.09 161.73 443.82C160.78 443.21 160.32 431.63 160.11 419.41H195.52L195.34 425.79C195.34 425.79 216.12 435.2 218.24 436.87C220.36 438.54 222.01 444.03 220.12 444.66Z" fill="#38CBA5"/>
<path d="M219.34 442.48C210.21 442.23 173.34 442.08 164.34 442.53C164.27 442.53 164.27 442.58 164.34 442.59C173.34 443.03 210.21 442.88 219.34 442.59C219.53 442.63 219.53 442.49 219.34 442.48Z" fill="#263238"/>
<path d="M196.6 423.77C193.01 423.09 188.6 423.63 185.86 426.18C185.76 426.28 185.86 426.43 186.02 426.39C189.452 425.285 192.992 424.551 196.58 424.2C196.624 424.185 196.663 424.158 196.692 424.12C196.72 424.083 196.737 424.038 196.739 423.992C196.741 423.945 196.729 423.899 196.704 423.859C196.679 423.819 196.643 423.788 196.6 423.77V423.77Z" fill="#263238"/>
<path d="M199.19 425.34C195.6 424.66 191.19 425.2 188.45 427.75C188.34 427.85 188.45 428 188.6 427.96C192.037 426.866 195.58 426.142 199.17 425.8C199.2 425.801 199.23 425.797 199.259 425.786C199.287 425.776 199.313 425.76 199.336 425.74C199.358 425.719 199.376 425.695 199.389 425.667C199.401 425.64 199.409 425.61 199.41 425.58C199.411 425.55 199.407 425.52 199.396 425.491C199.386 425.463 199.37 425.437 199.35 425.414C199.329 425.392 199.305 425.374 199.277 425.361C199.25 425.348 199.22 425.341 199.19 425.34V425.34Z" fill="#263238"/>
<path d="M201.77 426.91C198.18 426.23 193.77 426.77 191.04 429.32C190.93 429.42 191.04 429.57 191.19 429.53C194.627 428.436 198.17 427.712 201.76 427.37C201.821 427.371 201.88 427.348 201.924 427.306C201.968 427.264 201.994 427.206 201.995 427.145C201.996 427.084 201.973 427.025 201.931 426.981C201.889 426.937 201.831 426.911 201.77 426.91V426.91Z" fill="#263238"/>
<path d="M204.36 428.48C200.77 427.8 196.36 428.34 193.63 430.89C193.52 430.99 193.63 431.14 193.78 431.1C197.214 430.007 200.753 429.28 204.34 428.93C204.392 428.922 204.44 428.895 204.475 428.856C204.51 428.816 204.531 428.766 204.533 428.713C204.536 428.66 204.52 428.608 204.488 428.566C204.457 428.523 204.411 428.493 204.36 428.48V428.48Z" fill="#263238"/>
<path d="M203.25 415.49C201.85 413.49 199.25 414.41 197.72 415.66C195.177 417.86 193.259 420.692 192.16 423.87C192.155 423.884 192.154 423.9 192.157 423.915C192.159 423.93 192.164 423.944 192.173 423.957C192.182 423.969 192.193 423.98 192.207 423.987C192.22 423.995 192.235 423.999 192.25 424C192.248 424.069 192.262 424.139 192.291 424.202C192.32 424.265 192.364 424.321 192.418 424.364C192.472 424.408 192.536 424.438 192.604 424.453C192.672 424.468 192.743 424.467 192.81 424.45C195.81 423.36 199.08 422.56 201.63 420.6C203.12 419.45 204.58 417.33 203.25 415.49ZM196.97 421.88C195.52 422.45 194.06 422.95 192.63 423.57C193.667 421.941 194.785 420.366 195.98 418.85C196.571 418.141 197.209 417.473 197.89 416.85C198.96 415.85 203.2 413.85 202.55 417.76C202.2 419.88 198.69 421.2 196.97 421.88Z" fill="#263238"/>
<path d="M183.04 422.91C186.04 424.18 189.4 424.12 192.54 424.44C192.61 424.44 192.679 424.423 192.742 424.392C192.805 424.36 192.859 424.314 192.901 424.258C192.942 424.202 192.97 424.136 192.983 424.067C192.995 423.998 192.99 423.927 192.97 423.86C192.984 423.855 192.997 423.847 193.008 423.836C193.019 423.825 193.027 423.812 193.032 423.797C193.037 423.783 193.038 423.767 193.036 423.752C193.034 423.737 193.028 423.723 193.02 423.71C191.164 420.911 188.605 418.649 185.6 417.15C183.83 416.31 181.06 416.15 180.19 418.36C179.32 420.57 181.31 422.2 183.04 422.91ZM181.42 420.34C179.82 416.69 184.42 417.62 185.71 418.29C186.546 418.74 187.351 419.244 188.12 419.8C189.7 420.93 191.12 422.27 192.54 423.54C191.01 423.29 189.46 423.18 187.92 422.99C186.03 422.76 182.31 422.36 181.42 420.34V420.34Z" fill="#263238"/>
<path d="M148.49 240.34C148.49 240.34 158.01 334.55 158.24 335.74C158.24 335.9 158.34 337.74 158.43 340.67C158.94 356.89 160.21 407.46 160.21 407.46H199.12C199.12 407.46 196.59 347.56 195.12 333.59C193.26 315.77 181.57 240.34 181.57 240.34H148.49Z" fill="#455A64"/>
<path d="M162.87 339.07C161.67 318.65 159.867 298.283 157.46 277.97C156.1 266.52 154.46 255.12 152.83 243.71C152.83 243.61 152.65 243.61 152.67 243.71C155.67 264.02 157.81 284.49 159.67 304.93C161.53 325.37 162.79 345.81 163.62 366.3C164.1 377.91 164.45 389.52 164.83 401.13C164.841 401.179 164.868 401.223 164.907 401.254C164.946 401.286 164.995 401.303 165.045 401.303C165.095 401.303 165.144 401.286 165.183 401.254C165.222 401.223 165.249 401.179 165.26 401.13C164.68 380.43 164.12 359.73 162.87 339.07Z" fill="#263238"/>
<path d="M196.62 401.2C195.57 401.101 194.515 401.058 193.46 401.07C192.3 401.07 191.13 401.02 189.96 400.97C187.713 400.89 185.463 400.833 183.21 400.8C178.67 400.72 174.12 400.75 169.59 400.89L165.85 401.02C164.52 401.07 163.18 401.19 161.85 401.19C161.75 401.19 161.76 401.31 161.85 401.31C164.13 401.31 166.44 401.5 168.73 401.59C171.02 401.68 173.23 401.71 175.48 401.74C180.01 401.8 184.57 401.74 189.1 401.6C190.34 401.6 191.59 401.53 192.84 401.49L194.84 401.41C195.431 401.42 196.021 401.4 196.61 401.35C196.622 401.355 196.635 401.357 196.647 401.357C196.66 401.356 196.673 401.352 196.684 401.345C196.695 401.339 196.704 401.329 196.711 401.318C196.717 401.307 196.721 401.295 196.722 401.282C196.723 401.269 196.721 401.256 196.716 401.245C196.71 401.233 196.702 401.223 196.692 401.214C196.682 401.206 196.671 401.201 196.658 401.198C196.645 401.196 196.632 401.196 196.62 401.2V401.2Z" fill="#263238"/>
<path d="M148.49 240.34C148.49 240.34 158.01 334.55 158.24 335.74C158.24 335.9 158.34 337.74 158.43 340.67L176.75 240.34H148.49Z" fill="#263238"/>
<path d="M82.95 419.2C81.23 418.2 45.95 377.09 45.63 374.67C45.49 373.75 51.18 368.27 58.24 361.85C59.76 360.45 61.24 358.95 62.96 357.59C65.06 355.88 67.19 354.18 69.26 352.59C78.26 345.59 86.05 340.07 86.05 340.07L108.42 366L92.5 378.95L85.97 384.27L81.04 388.27C81.04 388.27 87.5 410.04 87.6 412.73C87.7 415.42 84.66 420.2 82.95 419.2Z" fill="#F7A9A0"/>
<path d="M82.95 419.2C81.23 418.2 45.95 377.09 45.63 374.67C45.49 373.75 51.18 368.27 58.24 361.85C59.76 360.45 61.24 358.95 62.96 357.59C65.06 355.88 67.19 354.18 69.26 352.59C76.19 360.59 86.26 371.9 92.5 378.95L85.97 384.27L81.04 388.27C81.04 388.27 87.5 410.04 87.6 412.73C87.7 415.42 84.66 420.2 82.95 419.2Z" fill="white"/>
<path d="M83 419.39C81.28 418.39 45.83 377.04 45.47 374.61C45.31 373.48 53.78 365.61 62.9 357.43L86.03 384.2L81.03 388.2C81.03 388.2 87.52 410.09 87.63 412.8C87.74 415.51 84.72 420.42 83 419.39Z" fill="#38CBA5"/>
<path d="M84.1201 417.38C78.3501 410.3 54.4001 382.32 48.1201 375.77C48.0701 375.72 48.0301 375.77 48.1201 375.77C53.6801 382.9 77.8601 410.69 84.0101 417.43C84.1201 417.62 84.2601 417.52 84.1201 417.38Z" fill="#263238"/>
<path d="M83.45 387.94C81.63 384.77 78.35 381.8 74.62 381.38C74.47 381.38 74.45 381.57 74.56 381.64C77.6401 383.514 80.5098 385.713 83.12 388.2C83.1594 388.221 83.2039 388.229 83.2481 388.225C83.2924 388.221 83.3345 388.204 83.3694 388.177C83.4043 388.149 83.4305 388.112 83.4448 388.07C83.4591 388.028 83.4609 387.983 83.45 387.94Z" fill="#263238"/>
<path d="M83.9601 390.92C82.1301 387.76 78.8501 384.78 75.1201 384.37C74.9801 384.37 74.9601 384.56 75.0601 384.62C78.1338 386.501 80.9969 388.707 83.6001 391.2C83.6398 391.239 83.6924 391.262 83.7481 391.266C83.8038 391.269 83.8588 391.252 83.9028 391.217C83.9469 391.183 83.977 391.134 83.9875 391.079C83.998 391.025 83.9883 390.968 83.9601 390.92V390.92Z" fill="#263238"/>
<path d="M84.4601 393.91C82.6301 390.74 79.3501 387.77 75.6201 387.35C75.4801 387.35 75.4601 387.54 75.5601 387.61C78.6433 389.49 81.5134 391.7 84.1201 394.2C84.1618 394.23 84.2125 394.245 84.264 394.243C84.3154 394.241 84.3647 394.222 84.4039 394.188C84.4431 394.155 84.4699 394.109 84.4801 394.059C84.4903 394.008 84.4832 393.956 84.4601 393.91Z" fill="#263238"/>
<path d="M84.9601 396.89C83.1301 393.73 79.8501 390.75 76.1201 390.34C75.9801 390.34 75.9601 390.53 76.0601 390.59C79.1382 392.481 82.0045 394.697 84.6101 397.2C84.6304 397.223 84.6551 397.242 84.6827 397.255C84.7103 397.268 84.7403 397.276 84.7709 397.278C84.8016 397.28 84.8323 397.276 84.8613 397.266C84.8903 397.256 84.9171 397.24 84.9401 397.22C84.963 397.199 84.9818 397.175 84.9952 397.147C85.0087 397.12 85.0165 397.09 85.0184 397.059C85.0203 397.028 85.0161 396.998 85.0061 396.969C84.996 396.94 84.9804 396.913 84.9601 396.89V396.89Z" fill="#263238"/>
<path d="M94.12 387.56C94.67 385.23 92.3 383.8 90.37 383.48C87.0417 382.999 83.6455 383.399 80.52 384.64C80.5093 384.649 80.5008 384.661 80.495 384.674C80.4891 384.687 80.4861 384.701 80.4861 384.715C80.4861 384.729 80.4891 384.743 80.495 384.756C80.5008 384.769 80.5093 384.78 80.52 384.79C80.4641 384.832 80.4187 384.886 80.3875 384.949C80.3562 385.011 80.34 385.08 80.34 385.15C80.34 385.22 80.3562 385.289 80.3875 385.351C80.4187 385.414 80.4641 385.468 80.52 385.51C83.29 387.05 86.05 389.03 89.21 389.67C90.99 390.05 93.55 389.77 94.12 387.56ZM85.12 386.98C83.74 386.26 82.41 385.47 81.01 384.8C82.93 384.58 84.83 384.28 86.77 384.25C87.7047 384.221 88.6403 384.258 89.57 384.36C91 384.54 95.33 386.36 91.92 388.48C90.06 389.63 86.77 387.84 85.12 386.98Z" fill="#263238"/>
<path d="M75.25 377.1C76.25 380.17 78.48 382.71 80.3 385.3C80.3457 385.353 80.4032 385.395 80.4679 385.422C80.5325 385.449 80.6026 385.46 80.6726 385.455C80.7425 385.45 80.8104 385.429 80.8707 385.394C80.931 385.358 80.9821 385.309 81.02 385.25C81.0399 385.254 81.0606 385.251 81.0787 385.242C81.0969 385.233 81.1114 385.218 81.12 385.2C82.0294 381.964 82.0708 378.546 81.24 375.29C80.72 373.4 79.05 371.19 76.79 371.99C74.53 372.79 74.68 375.31 75.25 377.1ZM76.12 374.2C77.83 370.59 80.12 374.7 80.47 376.11C80.6634 377.023 80.797 377.949 80.87 378.88C80.9901 380.807 81.0101 382.74 80.93 384.67C80.11 383.34 79.19 382.1 78.33 380.8C77.32 379.27 75.19 376.2 76.12 374.2Z" fill="#263238"/>
<path d="M181.52 240.34C181.52 240.34 179.13 254.59 169.97 261.94C169.97 261.94 148.48 327.11 143.66 334.09C135.66 345.65 95.8801 376.28 95.8801 376.28L70.1801 346.48C70.1801 346.48 108.76 319.07 111.78 314.9C113.78 312.13 128.84 270.22 128.57 268.77C125.45 251.49 133.25 240.3 133.25 240.3L181.52 240.34Z" fill="#455A64"/>
<path d="M136.29 242.88C134.588 246.318 133.373 249.977 132.68 253.75C132.351 255.656 132.18 257.586 132.17 259.52C132.17 261.6 132.39 263.67 132.46 265.74C132.548 267.86 132.332 269.981 131.82 272.04C131.33 274.04 130.71 276.04 130.12 277.98C128.9 281.98 127.607 285.98 126.24 289.98C123.52 297.92 120.52 305.75 117.24 313.47C116.562 315.281 115.592 316.97 114.37 318.47C112.947 319.9 111.386 321.186 109.71 322.31L99.33 330.09L78.45 345.76V345.81C78.22 345.98 78.45 346.37 78.69 346.2C85.69 340.97 90.1 337.64 97.1 332.41L107.69 324.5C109.36 323.25 111.06 322.03 112.69 320.74C114.13 319.652 115.343 318.293 116.26 316.74C117.172 315.028 117.977 313.262 118.67 311.45C119.49 309.45 120.3 307.52 121.08 305.55C122.62 301.69 124.087 297.803 125.48 293.89C126.873 289.976 128.207 285.976 129.48 281.89C130.11 279.89 130.73 277.83 131.33 275.8C131.956 273.859 132.45 271.877 132.81 269.87C133.43 265.76 132.52 261.61 132.72 257.48C132.891 253.483 133.701 249.54 135.12 245.8C135.497 244.828 135.925 243.877 136.4 242.95C136.47 242.86 136.33 242.78 136.29 242.88Z" fill="#263238"/>
<path d="M149.69 243.37C149.013 246.125 147.454 248.584 145.25 250.37C142.805 252.287 139.855 253.451 136.76 253.72C136.24 253.79 136.23 254.58 136.76 254.56C143.09 254.31 149.3 249.97 149.93 243.36C149.96 243.2 149.72 243.2 149.69 243.37Z" fill="#263238"/>
<path d="M175.84 257.35C173.587 258.379 171.449 259.643 169.46 261.12C167.35 262.57 165.41 264.23 163.38 265.78C163.366 265.793 163.357 265.81 163.356 265.829C163.354 265.848 163.358 265.867 163.369 265.883C163.38 265.899 163.396 265.91 163.415 265.915C163.433 265.92 163.453 265.918 163.47 265.91C165.61 264.55 167.85 263.35 169.97 261.91C172.096 260.615 174.104 259.136 175.97 257.49C175.976 257.471 175.977 257.451 175.972 257.432C175.968 257.413 175.959 257.396 175.946 257.382C175.932 257.368 175.916 257.357 175.897 257.351C175.879 257.346 175.859 257.345 175.84 257.35V257.35Z" fill="#263238"/>
<path d="M176.12 244.12C175.85 245.58 175.49 247.03 175.18 248.49C174.87 249.95 174.66 251.25 174.3 252.6C174.003 253.908 173.341 255.104 172.39 256.05C171.85 256.55 171.26 256.99 170.69 257.44C170.38 257.69 170.05 257.93 169.69 258.18C169.69 257.98 169.76 257.79 169.8 257.59C169.89 257.03 169.99 256.47 170.08 255.92C170.29 254.68 170.49 253.45 170.67 252.21C171.05 249.78 171.39 247.32 171.9 244.91C171.9 244.82 171.77 244.78 171.74 244.91C171.14 247.29 170.47 249.65 169.94 252.06C169.68 253.24 168.76 259.06 168.72 259.48C168.68 259.9 168.64 260.33 168.63 260.76C168.57 261.191 168.57 261.629 168.63 262.06C168.63 262.17 168.78 262.15 168.82 262.06C168.994 261.657 169.119 261.234 169.19 260.8C169.3 260.38 169.39 259.96 169.47 259.54C169.47 259.39 169.47 259.23 169.54 259.07C170.11 258.73 170.64 258.26 171.18 257.88C171.72 257.5 172.35 257.05 172.89 256.59C173.905 255.738 174.638 254.598 174.99 253.32C175.341 251.946 175.569 250.544 175.67 249.13C175.86 247.48 175.99 245.81 176.22 244.13C176.207 244.117 176.19 244.109 176.172 244.107C176.154 244.106 176.135 244.11 176.12 244.12V244.12Z" fill="#263238"/>
<path d="M99.5 370.51C98.93 369.65 98.18 368.85 97.5 368.04C96.82 367.23 96 366.25 95.27 365.34C93.86 363.58 92.43 361.85 90.98 360.12C88.12 356.65 85.12 353.2 82.01 349.9C81.16 348.98 80.31 348.07 79.45 347.16C78.59 346.25 77.58 345.26 76.71 344.25C76.65 344.18 76.56 344.25 76.62 344.34C78.13 346.05 79.49 347.94 80.92 349.71C82.35 351.48 83.78 353.19 85.24 354.91C88.16 358.38 91.18 361.79 94.24 365.1C95.1 366.01 95.93 366.94 96.78 367.86C97.23 368.35 97.69 368.86 98.15 369.31C98.61 369.76 98.91 370.22 99.36 370.62C99.3746 370.638 99.396 370.65 99.4194 370.653C99.4428 370.656 99.4664 370.649 99.485 370.635C99.5036 370.62 99.5156 370.599 99.5184 370.575C99.5212 370.552 99.5146 370.528 99.5 370.51V370.51Z" fill="#263238"/>
<path d="M169.77 218.83C167.275 219.972 164.658 220.828 161.97 221.38C167.16 216.08 170.05 201.93 169.11 203.82C164.62 212.82 156.04 221.82 153.63 221.82C147.78 221.067 142.335 218.426 138.12 214.3C144.58 208.45 147.89 194.16 147.35 194.95C141.59 203.38 133.07 207.04 131.83 206.72C128.31 201.18 126.95 196.18 127.71 195.89C133.29 193.82 139.43 186.44 145.28 178.48C151.06 170.64 154.93 162.79 161.96 156.25C168.38 150.25 178.05 151.2 182.44 156.15C193.93 169.1 173.3 217.2 169.77 218.83Z" fill="#263238"/>
<path d="M170.5 153.6C166.43 153.6 162.4 156.31 159.59 159.07C155.85 162.75 152.88 167.22 149.54 171.25C143.049 179.233 135.353 186.157 126.73 191.77C126.69 191.792 126.661 191.83 126.649 191.874C126.637 191.918 126.642 191.965 126.665 192.005C126.688 192.044 126.725 192.074 126.769 192.086C126.813 192.098 126.86 192.092 126.9 192.07C135.74 188.28 142.84 181.47 149.07 174.21C152.25 170.49 155.07 166.47 158.07 162.68C159.71 160.565 161.631 158.684 163.78 157.09C165.826 155.719 168.129 154.776 170.55 154.32C170.63 154.295 170.7 154.245 170.748 154.176C170.796 154.107 170.818 154.023 170.813 153.94C170.807 153.856 170.773 153.777 170.716 153.715C170.659 153.653 170.583 153.612 170.5 153.6V153.6Z" fill="#263238"/>
<path d="M170.44 196.09C173.16 201.72 192.04 219.74 207.57 225.33C213.27 227.38 237.85 221.48 243.67 219.02C250.48 216.13 245.95 199.14 241.6 199.16C236.16 199.16 212.85 204.77 207.87 204.65C201.81 204.5 187.75 195.24 175.8 190.59C169.64 188.2 168.34 191.74 170.44 196.09Z" fill="#F7A9A0"/>
<path d="M243.67 219.02C245.86 218.22 255.58 213.66 258 211.79C260.42 209.92 267 204.03 265.76 202.03C264.52 200.03 262.45 201.6 262.45 201.6C262.45 201.6 264.83 198.67 263.39 196.77C261.95 194.87 258.83 197.42 258.83 197.42C258.83 197.42 261.05 194.24 259.49 192.42C257.93 190.6 255.2 193.71 255.2 193.71C255.2 193.71 257.37 190.9 255.46 189.97C253.16 188.84 249.74 194.49 246.91 196.36C246.27 196.78 233.28 204.02 233.28 204.02L243.67 219.02Z" fill="#F7A9A0"/>
<path d="M255.44 193.48C252.91 197.63 251.09 199.01 246.81 201.13C246.73 201.13 246.81 201.31 246.86 201.27C251.24 199.57 253.78 198.18 255.64 193.6C255.74 193.37 255.56 193.29 255.44 193.48Z" fill="#263238"/>
<path d="M259.02 197.09C256.02 201.17 254.02 202.68 249.74 205.23C249.68 205.23 249.74 205.38 249.8 205.35C254.24 203.19 256.74 201.74 259.2 197.27C259.31 197.07 259.12 196.9 259.02 197.09Z" fill="#263238"/>
<path d="M262.22 201.72C259.03 205.46 256.95 207.21 252.44 209.15C252.429 209.154 252.419 209.16 252.41 209.168C252.401 209.176 252.394 209.185 252.389 209.196C252.384 209.207 252.381 209.218 252.38 209.23C252.379 209.242 252.381 209.254 252.385 209.265C252.389 209.276 252.395 209.286 252.403 209.295C252.411 209.304 252.42 209.311 252.431 209.316C252.442 209.321 252.453 209.324 252.465 209.325C252.477 209.326 252.489 209.324 252.5 209.32C256.634 208.213 260.166 205.522 262.33 201.83C262.49 201.57 262.42 201.49 262.22 201.72Z" fill="#263238"/>
<path d="M229.43 203.32C231.268 201.028 233.274 198.875 235.43 196.88C237.57 195.17 247.88 191.74 248.75 193.88C249.87 196.7 244.31 199.88 241.38 201.04C241.38 201.04 243.98 207.56 240.47 210.69C236.96 213.82 229.43 203.32 229.43 203.32Z" fill="#F7A9A0"/>
<path d="M248.77 194.8C247.93 198.11 243.99 199.42 241.24 200.8C241.199 200.818 241.162 200.846 241.134 200.881C241.106 200.916 241.087 200.957 241.078 201.002C241.069 201.046 241.071 201.091 241.084 201.135C241.096 201.178 241.119 201.217 241.15 201.25C242.05 204.06 242.51 208.25 240.63 210.76C240.57 210.83 240.63 210.92 240.73 210.86C243.12 208.47 243 204.29 241.81 201.28C244.66 199.92 248.55 198.43 248.81 194.82C248.8 194.79 248.77 194.78 248.77 194.8Z" fill="#263238"/>
<path d="M218.86 203.04C218.86 203.04 222.46 201.96 222.79 202.96C223.12 203.96 221.28 205.4 221.28 205.4C221.28 205.4 223.79 205.4 224.11 206.99C224.43 208.58 221.8 209.59 221.8 209.59C221.8 209.59 224.52 210.37 224.61 211.5C224.73 213.02 222.41 213.82 222.41 213.82C222.41 213.82 225.05 214.03 225.15 215.52C225.25 217.01 222.85 217.74 222.85 217.74C222.85 217.74 225.63 218.09 225.9 219.21C226.21 220.54 223.48 221.73 223.48 221.73C223.48 221.73 226.11 222.16 226.27 223.31C226.43 224.46 223.83 225.41 222.47 225.42L218.86 203.04Z" fill="white"/>
<path d="M222.93 225.61C222.93 225.61 209.58 226.37 207.7 225.7C205.654 224.963 203.65 224.112 201.7 223.15C186.91 215.94 175.19 203.3 171.61 198.67C167.84 193.78 167.83 187.89 174.18 189.73C174.65 189.87 175.18 190.05 175.69 190.27C183.53 193.52 205.12 204.15 207.36 204.32C209.6 204.49 219.55 202.53 219.55 202.53L222.93 225.61Z" fill="#38CBA5"/>
<path d="M201.68 223.2C186.89 215.99 175.17 203.35 171.59 198.72C167.82 193.83 167.81 187.94 174.16 189.78L201.68 223.2Z" fill="#263238"/>
<path d="M183.43 227.49L183.69 250.41C180.899 250.565 178.101 250.565 175.31 250.41C167.94 250.063 160.595 249.301 153.31 248.13C146.1 247 137.61 245.36 127.86 242.98C127.86 242.98 145.22 202.4 158.86 190.3C159.173 190.02 159.483 189.76 159.79 189.52L159.97 189.37C166.22 184.46 172.55 187.15 176.43 191.53C177.43 192.62 187.43 210.38 187.7 216.65C187.89 222.2 183.43 227.49 183.43 227.49Z" fill="#38CBA5"/>
<path d="M175.31 250.43C167.94 250.083 160.595 249.322 153.31 248.15C154.31 237.46 157.73 201.15 158.83 190.32C159.143 190.04 159.453 189.78 159.76 189.54L175.31 250.43Z" fill="#263238"/>
<path d="M156.29 198.84C158.17 211.93 162.92 238.4 170.29 244.84C179.97 253.31 202.37 254.84 209.01 255.32C211.9 255.53 214.41 236.4 212.26 234.18C210.11 231.96 187.12 231.2 185.12 230.13C183.12 229.06 173.12 209.26 168.19 199.13C161.95 186.46 155.55 193.68 156.29 198.84Z" fill="#F7A9A0"/>
<path d="M229.86 237.5C233.48 237.57 238.31 234.67 239.05 237.26C239.71 239.57 236.17 241.26 236.17 241.26C236.17 241.26 240.77 240.65 240.78 243.34C240.79 246.03 236.52 247.07 236.52 247.07C236.52 247.07 240.78 246.74 240.6 249.42C240.42 252.1 236.5 253.31 236.5 253.31C236.5 253.31 237.72 253.86 236.74 255.69C235.33 258.31 229 259.42 225.55 259.22C222.1 259.02 209.65 255.71 207.75 255.22L208.88 233.1C208.88 233.1 215.17 230.64 218.52 229.78C221.87 228.92 233.67 229.15 233.81 232.08C233.95 235.01 225.61 234.71 223.56 235.08C221.51 235.45 221.24 235.99 222.29 236.55C224.781 237.083 227.314 237.401 229.86 237.5V237.5Z" fill="#F7A9A0"/>
<path d="M235.97 241.25C230.87 243.25 228.29 243.25 222.97 242.25C222.87 242.25 222.81 242.38 222.97 242.41C228.06 243.88 231.29 244.35 236.1 241.52C236.31 241.35 236.21 241.2 235.97 241.25Z" fill="#263238"/>
<path d="M236.72 246.93C231.24 248.54 228.45 248.56 222.83 247.93C222.75 247.93 222.73 248.05 222.83 248.07C228.29 249.17 231.52 249.58 236.78 247.25C237 247.11 236.97 246.85 236.72 246.93Z" fill="#263238"/>
<path d="M236.43 253.27C231.02 254.45 227.95 254.6 222.58 253.27C222.553 253.262 222.525 253.265 222.5 253.278C222.476 253.291 222.458 253.313 222.45 253.34C222.442 253.367 222.445 253.395 222.458 253.419C222.471 253.444 222.493 253.462 222.52 253.47C226.984 255.292 231.985 255.292 236.45 253.47C236.77 253.32 236.77 253.2 236.43 253.27Z" fill="#263238"/>
<path d="M194.46 229.89C194.46 229.89 198.55 229.99 198.56 231.14C198.57 232.29 196.17 233.14 196.17 233.14C196.17 233.14 198.75 234.03 198.56 235.75C198.37 237.47 195.29 237.66 195.29 237.66C195.29 237.66 197.85 239.39 197.56 240.6C197.18 242.21 194.5 242.26 194.5 242.26C194.5 242.26 197.17 243.37 196.76 244.95C196.35 246.53 193.63 246.47 193.63 246.47C193.63 246.47 196.39 247.77 196.29 249.02C196.17 250.5 192.94 250.82 192.94 250.82C192.94 250.82 195.51 252.15 195.29 253.4C195.07 254.65 192.05 254.75 190.64 254.3L194.46 229.89Z" fill="white"/>
<path d="M196.17 229.71L191.66 254.71C191.66 254.71 172.78 249.88 168.77 243.89C163.77 236.41 157.26 212.89 155.84 200.36C154.42 187.83 163.26 187.48 168.41 197.73C173.41 207.68 184.03 227.44 184.86 228.29C185.94 229.43 196.17 229.71 196.17 229.71Z" fill="#38CBA5"/>
<path d="M183.55 225.75C183.04 224.75 182.03 222.64 181.55 221.75C180.55 219.91 179.5 218.07 178.45 216.24C177.4 214.41 176.37 212.57 175.29 210.76C175.1 210.46 174.93 210.14 174.74 209.83C174.74 209.61 173.94 207.07 173.82 206.43C173.82 206.33 173.64 206.36 173.67 206.43C173.832 207.057 173.949 207.696 174.02 208.34C174.02 208.46 174.02 208.58 174.1 208.7C173.41 207.51 172.72 206.31 172.02 205.16C171.97 205.07 171.83 205.16 171.88 205.23C173.27 207.73 174.03 209.33 175.08 211.37C176.13 213.41 177.19 215.3 178.26 217.25C179.33 219.2 180.45 221.14 181.55 223.07C182.189 224.228 182.887 225.353 183.64 226.44C184.12 227.12 184.12 226.74 183.55 225.75Z" fill="#263238"/>
<path d="M165.3 188.61C165.52 189.47 169.74 195.03 173.7 194.79C174.99 194.7 174.85 187.64 174.85 187.64L174.96 187.12L176.48 179.79L167.81 174.42L166.56 173.71C166.56 173.71 166.28 175.71 165.95 178.28C165.95 178.4 165.95 178.52 165.95 178.64C165.921 178.775 165.901 178.912 165.89 179.05C165.83 179.43 165.78 179.82 165.73 180.2C165.68 180.58 165.66 180.78 165.64 181.09C165.62 181.4 165.58 181.7 165.54 182.01C165.307 184.202 165.226 186.407 165.3 188.61Z" fill="#F7A9A0"/>
<path d="M165.95 178.28C166.718 180.319 167.921 182.165 169.475 183.692C171.03 185.219 172.898 186.388 174.95 187.12L176.47 179.79L167.8 174.42L166.55 173.71C166.55 173.71 166.28 175.75 165.95 178.28Z" fill="#263238"/>
<path d="M165.3 172.44C165.3 172.44 162.3 168.44 160.51 169.44C158.72 170.44 160.95 176.44 163.15 177.16C163.425 177.278 163.721 177.339 164.02 177.34C164.32 177.34 164.616 177.28 164.891 177.164C165.167 177.047 165.416 176.876 165.624 176.66C165.831 176.445 165.993 176.189 166.1 175.91L165.3 172.44Z" fill="#F7A9A0"/>
<path d="M161.21 171.13C161.21 171.13 161.16 171.13 161.21 171.19C161.924 171.523 162.56 172.002 163.077 172.596C163.593 173.19 163.98 173.887 164.21 174.64C164.116 174.49 163.992 174.362 163.845 174.265C163.698 174.167 163.532 174.102 163.358 174.073C163.184 174.045 163.006 174.054 162.835 174.1C162.665 174.146 162.506 174.228 162.37 174.34C162.37 174.34 162.37 174.44 162.37 174.43C162.636 174.338 162.925 174.331 163.195 174.409C163.466 174.488 163.705 174.649 163.88 174.87C164.169 175.244 164.421 175.646 164.63 176.07C164.7 176.21 164.95 176.13 164.89 175.97C164.88 173.99 163.31 171.28 161.21 171.13Z" fill="#263238"/>
<path d="M186.24 167.96C187.64 181.02 179.97 183.34 177.15 183.63C174.6 183.91 165.86 184.5 163.15 171.63C160.44 158.76 166.04 154 171.85 153.07C177.66 152.14 184.84 154.9 186.24 167.96Z" fill="#F7A9A0"/>
<path d="M183.62 166.2C183.318 166.165 183.017 166.115 182.72 166.05C182.399 166.039 182.089 165.923 181.84 165.72C181.778 165.638 181.744 165.538 181.744 165.435C181.744 165.332 181.778 165.232 181.84 165.15C181.982 165 182.162 164.891 182.361 164.835C182.56 164.778 182.77 164.777 182.97 164.83C183.391 164.879 183.779 165.082 184.06 165.4C184.123 165.475 184.162 165.568 184.172 165.667C184.181 165.765 184.161 165.864 184.113 165.95C184.066 166.036 183.993 166.107 183.905 166.151C183.817 166.196 183.718 166.213 183.62 166.2V166.2Z" fill="#263238"/>
<path d="M174.54 166.85C174.85 166.8 175.12 166.7 175.42 166.63C175.742 166.593 176.044 166.453 176.28 166.23C176.342 166.148 176.376 166.048 176.376 165.945C176.376 165.842 176.342 165.742 176.28 165.66C176.126 165.523 175.938 165.429 175.736 165.389C175.534 165.348 175.325 165.362 175.13 165.43C174.732 165.518 174.377 165.745 174.13 166.07C174.079 166.145 174.05 166.232 174.045 166.322C174.04 166.412 174.06 166.502 174.102 166.582C174.144 166.662 174.207 166.73 174.284 166.777C174.361 166.824 174.45 166.849 174.54 166.85V166.85Z" fill="#263238"/>
<path d="M176.41 170.09C176.41 170.09 176.34 170.14 176.35 170.18C176.43 171.07 176.35 172.1 175.58 172.45V172.5C176.57 172.3 176.63 170.92 176.41 170.09Z" fill="#263238"/>
<path d="M175.56 169.2C174.12 169.2 174.18 172.06 175.51 172.08C176.84 172.1 176.77 169.2 175.56 169.2Z" fill="#263238"/>
<path d="M174.99 169.37C174.75 169.54 174.51 169.84 174.2 169.87C173.89 169.9 173.58 169.62 173.34 169.33H173.29C173.29 169.88 173.52 170.44 174.12 170.51C174.72 170.58 175.04 170.08 175.12 169.51C175.19 169.46 175.12 169.31 174.99 169.37Z" fill="#263238"/>
<path d="M182 169.57C182 169.57 182.08 169.57 182.07 169.65C182.07 170.54 182.19 171.57 183 171.85C183 171.85 183 171.91 183 171.85C182.01 171.78 181.85 170.41 182 169.57Z" fill="#263238"/>
<path d="M182.79 168.62C184.23 168.5 184.38 171.38 183.05 171.5C181.72 171.62 181.59 168.73 182.79 168.62Z" fill="#263238"/>
<path d="M183.4 168.78C183.64 168.92 183.88 169.19 184.15 169.19C184.42 169.19 184.68 168.87 184.87 168.56C184.87 168.56 184.87 168.56 184.92 168.56C184.92 169.11 184.81 169.7 184.28 169.83C183.75 169.96 183.43 169.5 183.28 168.95C183.24 168.88 183.31 168.72 183.4 168.78Z" fill="#263238"/>
<path d="M177 176.94C177.21 177.16 177.41 177.45 177.74 177.49C178.084 177.494 178.424 177.425 178.74 177.29C178.74 177.29 178.8 177.29 178.74 177.29C178.608 177.463 178.431 177.597 178.228 177.678C178.026 177.759 177.805 177.784 177.59 177.75C177.412 177.692 177.254 177.585 177.134 177.442C177.014 177.299 176.936 177.125 176.91 176.94C176.9 176.93 176.97 176.91 177 176.94Z" fill="#263238"/>
<path d="M180.63 173.59C180.63 173.59 180.86 174.92 180.88 175.59C180.88 175.65 180.73 175.68 180.51 175.7C179.966 175.829 179.398 175.804 178.868 175.627C178.338 175.45 177.867 175.129 177.51 174.7C177.51 174.64 177.51 174.57 177.61 174.61C178.428 175.131 179.393 175.373 180.36 175.3C180.36 175.13 179.9 173.04 180 173.03C180.491 173.057 180.975 173.151 181.44 173.31C181.04 170.52 180.2 167.83 179.85 165.05C179.856 165.032 179.868 165.017 179.883 165.006C179.898 164.995 179.916 164.989 179.935 164.989C179.954 164.989 179.972 164.995 179.987 165.006C180.002 165.017 180.014 165.032 180.02 165.05C181.002 167.911 181.699 170.862 182.1 173.86C182.19 174.12 180.88 173.69 180.63 173.59Z" fill="#263238"/>
<path d="M163.92 172.5C166.08 172.5 166.23 167.95 166.23 167.95C166.23 167.95 170.59 167.63 171.55 161.24C171.57 163.131 171.039 164.987 170.02 166.58C170.02 166.58 177.65 165.17 180.4 158.48C180.4 158.48 179.4 161.86 178.23 163.12C180.139 162.372 181.739 161.001 182.77 159.23C182.77 159.23 184.4 162.84 185.52 163.79C185.52 163.79 184.16 150.34 171.79 152.74C171.79 152.74 164.02 153.86 161.69 160.26C159.36 166.66 163.92 172.5 163.92 172.5Z" fill="#263238"/>
<path d="M166.12 186.76C164.52 186.91 161.86 187.49 158.52 190.63C158.52 190.63 166.71 195.94 173.76 195.23C176.28 194.98 176.76 190.74 176.76 190.74C175.384 189.34 173.719 188.259 171.881 187.571C170.043 186.884 168.077 186.607 166.12 186.76V186.76Z" fill="#F7A9A0"/>
<path d="M327.91 444.8C329.81 445.44 384.2 445.63 386.28 444.33C387.07 443.84 387.56 435.92 387.88 426.33C387.95 424.26 388.01 422.12 388.05 419.95L392.46 390.95L356.12 390.71L352.69 419.71L352.83 426.1C352.83 426.1 331.97 435.34 329.83 437.01C327.69 438.68 326.01 444.2 327.91 444.8Z" fill="#DD6A57"/>
<path d="M327.91 444.8C329.81 445.44 384.2 445.63 386.28 444.33C387.28 443.73 387.76 432.16 388.05 419.95L352.67 419.72L352.81 426.11C352.81 426.11 331.95 435.35 329.81 437.02C327.67 438.69 326.01 444.2 327.91 444.8Z" fill="white"/>
<path d="M327.91 444.8C329.81 445.44 384.2 445.63 386.28 444.33C387.07 443.84 387.56 435.92 387.88 426.33L352.81 426.11C352.81 426.11 331.95 435.35 329.81 437.02C327.67 438.69 326.01 444.2 327.91 444.8Z" fill="#38CBA5"/>
<path d="M328.7 442.62C337.81 442.43 374.61 442.52 383.64 443.02C383.71 443.02 383.71 443.08 383.64 443.08C374.64 443.47 337.81 443.08 328.7 442.77C328.5 442.77 328.5 442.63 328.7 442.62Z" fill="#263238"/>
<path d="M333.33 435.08C334.344 435.057 335.351 435.244 336.289 435.63C337.227 436.015 338.075 436.591 338.78 437.32C340.048 438.63 340.765 440.377 340.78 442.2C340.78 442.25 340.68 442.25 340.67 442.2C340.365 440.394 339.483 438.736 338.156 437.474C336.829 436.212 335.129 435.414 333.31 435.2C333.294 435.197 333.28 435.188 333.27 435.175C333.261 435.162 333.257 435.146 333.26 435.13C333.263 435.114 333.271 435.1 333.285 435.09C333.298 435.081 333.314 435.077 333.33 435.08V435.08Z" fill="#263238"/>
<path d="M349.27 427C352.92 427 357.15 428.27 359.4 431.26C359.49 431.37 359.32 431.5 359.22 431.44C356.038 429.756 352.685 428.416 349.22 427.44C349.174 427.421 349.135 427.387 349.109 427.344C349.083 427.301 349.073 427.251 349.078 427.201C349.084 427.151 349.106 427.105 349.14 427.068C349.175 427.032 349.22 427.008 349.27 427Z" fill="#263238"/>
<path d="M346.45 428.09C350.1 428.09 354.33 429.35 356.58 432.35C356.67 432.46 356.5 432.59 356.4 432.53C353.218 430.845 349.866 429.504 346.4 428.53C346.354 428.511 346.315 428.477 346.289 428.434C346.263 428.391 346.253 428.341 346.258 428.291C346.264 428.241 346.286 428.194 346.32 428.158C346.355 428.122 346.4 428.098 346.45 428.09V428.09Z" fill="#263238"/>
<path d="M343.63 429.2C347.28 429.2 351.5 430.46 353.76 433.46C353.85 433.57 353.68 433.69 353.57 433.64C350.389 431.953 347.037 430.612 343.57 429.64C343.523 429.62 343.485 429.586 343.46 429.542C343.435 429.498 343.425 429.447 343.432 429.397C343.438 429.347 343.462 429.3 343.497 429.265C343.533 429.229 343.58 429.206 343.63 429.2Z" fill="#263238"/>
<path d="M340.81 430.27C344.46 430.27 348.68 431.53 350.94 434.52C351.03 434.64 350.86 434.76 350.75 434.71C347.571 433.019 344.218 431.678 340.75 430.71C340.703 430.69 340.665 430.656 340.64 430.612C340.615 430.568 340.605 430.517 340.611 430.467C340.618 430.417 340.641 430.371 340.677 430.335C340.713 430.299 340.76 430.276 340.81 430.27V430.27Z" fill="#263238"/>
<path d="M381.35 434.36C385.44 434.36 385.41 440.74 381.3 440.72C377.19 440.7 377.24 434.33 381.35 434.36Z" fill="#263238"/>
<path d="M345.63 422.6C347.63 425.15 350.63 426.76 353.18 428.6C353.241 428.634 353.309 428.654 353.379 428.658C353.449 428.661 353.519 428.648 353.583 428.62C353.647 428.592 353.703 428.549 353.748 428.495C353.793 428.441 353.824 428.378 353.84 428.31C353.854 428.313 353.869 428.313 353.883 428.309C353.897 428.306 353.911 428.299 353.921 428.289C353.932 428.279 353.94 428.267 353.945 428.253C353.95 428.239 353.952 428.224 353.95 428.21C353.693 424.86 352.562 421.636 350.67 418.86C349.54 417.27 347.21 415.76 345.36 417.29C343.51 418.82 344.49 421.11 345.63 422.6ZM345.47 419.6C345.85 415.6 349.42 418.69 350.21 419.9C350.708 420.689 351.152 421.511 351.54 422.36C352.36 424.12 352.93 425.96 353.54 427.78C352.32 426.78 351.03 425.96 349.78 425.04C348.32 423.93 345.27 421.76 345.47 419.58V419.6Z" fill="#263238"/>
<path d="M366.92 425.89C366.64 423.5 363.92 422.98 362 423.34C358.698 424.018 355.635 425.556 353.12 427.8C353.108 427.808 353.097 427.819 353.09 427.832C353.083 427.846 353.08 427.86 353.08 427.875C353.08 427.89 353.083 427.904 353.09 427.918C353.097 427.931 353.108 427.942 353.12 427.95C353.083 428.01 353.061 428.078 353.055 428.147C353.05 428.217 353.06 428.288 353.087 428.353C353.113 428.418 353.154 428.476 353.207 428.522C353.259 428.569 353.322 428.602 353.39 428.62C356.51 429.11 359.78 430.03 362.96 429.55C364.87 429.27 367.18 428.14 366.92 425.89ZM358.32 428.4C356.78 428.19 355.26 427.91 353.71 427.76C355.44 426.9 357.12 425.97 358.94 425.28C359.805 424.929 360.694 424.642 361.6 424.42C363.01 424.09 367.7 424.36 365.22 427.48C363.86 429.2 360.12 428.65 358.32 428.4Z" fill="#263238"/>
<path d="M445.89 256.84C445.89 256.84 403.67 328.68 402.54 333.72C400.8 341.47 391.59 418 391.59 418L347.65 417.2C347.65 417.2 355.23 349.72 362.4 327.49C367.57 311.49 404.83 258.37 404.83 258.37L445.89 256.84Z" fill="#38CBA5"/>
<path d="M351.65 410.48C357.96 410.48 380.32 410.18 388.72 410.96C388.736 410.96 388.751 410.966 388.762 410.978C388.774 410.989 388.78 411.004 388.78 411.02C388.78 411.036 388.774 411.051 388.762 411.062C388.751 411.074 388.736 411.08 388.72 411.08C385.82 411.5 357.95 410.85 351.65 410.65C351.636 410.655 351.622 410.656 351.608 410.654C351.593 410.652 351.58 410.647 351.568 410.638C351.557 410.63 351.547 410.619 351.54 410.606C351.534 410.594 351.53 410.579 351.53 410.565C351.53 410.551 351.534 410.537 351.54 410.524C351.547 410.511 351.557 410.5 351.568 410.492C351.58 410.483 351.593 410.478 351.608 410.476C351.622 410.474 351.636 410.475 351.65 410.48Z" fill="#263238"/>
<path d="M438.69 263.43C435.92 267.77 433 272.02 430.17 276.33C427.34 280.64 424.52 284.94 421.74 289.27C416.167 297.937 410.733 306.68 405.44 315.5C402.864 319.558 400.661 323.843 398.86 328.3C397.192 332.772 395.94 337.388 395.12 342.09C394.26 346.8 393.69 351.56 393.12 356.32C392.553 361.393 391.987 366.463 391.42 371.53L387.95 402.64C387.8 403.91 387.66 405.18 387.54 406.46C387.54 406.64 387.85 406.68 387.88 406.46C389.17 396.16 390.24 385.82 391.42 375.46C392 370.32 392.583 365.183 393.17 360.05C393.71 355.27 394.23 350.49 394.97 345.74C395.657 341.056 396.694 336.43 398.07 331.9C399.587 327.208 401.623 322.7 404.14 318.46C409.23 309.68 414.62 301.05 420.01 292.46C425.4 283.87 430.93 275.12 436.61 266.59C437.32 265.53 438.02 264.48 438.75 263.45C438.88 263.43 438.74 263.35 438.69 263.43Z" fill="#263238"/>
<path d="M408.56 450.84C410.56 450.97 464.56 436.74 466.21 434.95C466.282 434.842 466.326 434.719 466.34 434.59C466.55 432.82 463.79 426.19 461.85 417.71C461.73 417.17 460.72 414.59 459.29 411.12C455.38 401.56 448.39 385.17 448.39 385.17L413.12 394.2L426.12 420.28L427.88 426.42C427.88 426.42 410.12 440.67 408.44 442.83C406.76 444.99 406.57 450.7 408.56 450.84Z" fill="#DD6A57"/>
<path d="M408.56 450.84C410.56 450.97 464.56 436.74 466.21 434.95C466.282 434.842 466.326 434.719 466.34 434.59C466.55 432.82 463.79 426.19 461.85 417.71C461.73 417.17 460.72 414.59 459.29 411.12L426.12 420.28L427.88 426.42C427.88 426.42 410.12 440.67 408.44 442.83C406.76 444.99 406.57 450.7 408.56 450.84Z" fill="white"/>
<path d="M408.57 450.83C410.57 450.97 464.57 436.74 466.21 434.95C466.85 434.28 465.45 426.95 461.86 417.71L427.86 426.42C427.86 426.42 410.12 440.67 408.44 442.83C406.76 444.99 406.57 450.7 408.57 450.83Z" fill="#38CBA5"/>
<path d="M408.78 448.53C417.54 446.03 453.15 436.74 462.01 434.93C462.08 434.93 462.09 434.93 462.01 434.99C453.38 437.66 417.7 446.66 408.8 448.68C408.62 448.72 408.59 448.59 408.78 448.53Z" fill="#263238"/>
<path d="M411.34 440.05C412.315 439.773 413.337 439.7 414.342 439.836C415.347 439.971 416.313 440.313 417.18 440.84C418.744 441.777 419.887 443.281 420.37 445.04C420.37 445.09 420.29 445.12 420.26 445.04C419.509 443.369 418.237 441.988 416.634 441.102C415.031 440.217 413.184 439.876 411.37 440.13C411.29 440.2 411.27 440.08 411.34 440.05Z" fill="#263238"/>
<path d="M424.69 428.2C428.21 427.2 432.63 427.41 435.58 429.73C435.69 429.82 435.58 429.98 435.44 429.96C431.934 429.139 428.35 428.7 424.75 428.65C424.695 428.648 424.643 428.627 424.603 428.591C424.562 428.554 424.536 428.505 424.529 428.45C424.522 428.396 424.534 428.341 424.563 428.296C424.593 428.25 424.638 428.216 424.69 428.2V428.2Z" fill="#263238"/>
<path d="M422.24 429.96C425.76 428.96 430.18 429.18 433.13 431.49C433.24 431.58 433.13 431.75 432.99 431.72C429.484 430.899 425.9 430.46 422.3 430.41C422.245 430.408 422.193 430.387 422.153 430.351C422.112 430.314 422.086 430.264 422.079 430.21C422.071 430.156 422.084 430.101 422.113 430.055C422.143 430.009 422.188 429.975 422.24 429.96V429.96Z" fill="#263238"/>
<path d="M419.79 431.73C423.31 430.73 427.73 430.95 430.68 433.27C430.79 433.35 430.68 433.52 430.54 433.49C427.031 432.669 423.443 432.229 419.84 432.18C419.786 432.176 419.735 432.154 419.696 432.116C419.657 432.079 419.633 432.029 419.627 431.976C419.621 431.922 419.634 431.868 419.664 431.823C419.694 431.778 419.738 431.745 419.79 431.73Z" fill="#263238"/>
<path d="M417.34 433.5C420.86 432.5 425.28 432.72 428.22 435.04C428.34 435.13 428.22 435.29 428.09 435.26C424.581 434.439 420.993 433.999 417.39 433.95C417.336 433.946 417.285 433.924 417.246 433.886C417.207 433.849 417.183 433.799 417.177 433.746C417.171 433.692 417.184 433.638 417.214 433.593C417.243 433.548 417.288 433.515 417.34 433.5V433.5Z" fill="#263238"/>
<path d="M457.59 427.13C461.59 426.13 463.14 432.28 459.17 433.3C455.2 434.32 453.61 428.2 457.59 427.13Z" fill="#263238"/>
<path d="M420.06 424.86C422.6 426.86 425.91 427.61 428.87 428.7C428.937 428.717 429.008 428.718 429.076 428.703C429.144 428.689 429.208 428.658 429.262 428.614C429.316 428.571 429.36 428.515 429.389 428.452C429.418 428.389 429.432 428.32 429.43 428.25C429.445 428.249 429.46 428.245 429.473 428.237C429.487 428.23 429.498 428.22 429.507 428.207C429.516 428.194 429.521 428.18 429.523 428.165C429.526 428.15 429.525 428.135 429.52 428.12C428.418 424.949 426.505 422.121 423.97 419.92C422.46 418.67 419.83 417.8 418.43 419.75C417.03 421.7 418.57 423.71 420.06 424.86ZM419.13 421.97C418.49 418.04 422.72 420.09 423.79 421.06C424.472 421.699 425.111 422.384 425.7 423.11C426.895 424.623 428.013 426.195 429.05 427.82C427.62 427.2 426.16 426.7 424.71 426.13C422.99 425.45 419.49 424.14 419.12 421.97H419.13Z" fill="#263238"/>
<path d="M441.48 422.61C440.6 420.38 437.84 420.56 436.08 421.4C433.072 422.9 430.513 425.166 428.66 427.97C428.649 427.978 428.641 427.989 428.635 428.001C428.629 428.013 428.626 428.027 428.626 428.04C428.626 428.053 428.629 428.067 428.635 428.079C428.641 428.091 428.649 428.102 428.66 428.11C428.64 428.177 428.635 428.248 428.647 428.317C428.659 428.386 428.687 428.452 428.729 428.508C428.771 428.564 428.825 428.61 428.888 428.642C428.951 428.673 429.02 428.69 429.09 428.69C432.23 428.37 435.63 428.42 438.58 427.15C440.36 426.41 442.31 424.73 441.48 422.61ZM433.81 427.2C432.26 427.4 430.72 427.51 429.19 427.76C430.64 426.49 432.03 425.16 433.6 424.03C434.352 423.475 435.14 422.97 435.96 422.52C437.24 421.85 441.85 420.91 440.25 424.52C439.36 426.6 435.64 427.01 433.81 427.2Z" fill="#263238"/>
<path d="M423.72 418.61L463.19 408.25C463.19 408.25 425.4 333.87 425.71 328.73C425.98 324.18 453.39 284.26 454.91 276.79C457.39 264.56 451.43 253.64 445.66 246.87L404.83 258.38C407.023 262.849 410.17 266.781 414.05 269.9C414.05 269.9 388.39 312.75 387.74 326.84C387.09 340.93 423.72 418.61 423.72 418.61Z" fill="#38CBA5"/>
<path d="M422.96 411.25C428.69 409.61 427.02 410 432.77 408.43C435.58 407.66 454.06 402.61 456.77 402.35C456.83 402.35 456.85 402.44 456.77 402.46C454.25 403.6 435.69 408.32 432.86 409.04C427.09 410.51 428.73 410.04 422.94 411.42C422.9 411.45 422.86 411.29 422.96 411.25Z" fill="#263238"/>
<path d="M407.78 268.26C411.706 269.708 415.5 271.492 419.12 273.59C419.144 273.608 419.161 273.634 419.168 273.663C419.175 273.692 419.172 273.723 419.159 273.75C419.146 273.777 419.124 273.799 419.097 273.812C419.07 273.824 419.039 273.827 419.01 273.82C415.2 272.15 411.31 270.56 407.6 268.7C407.55 268.671 407.512 268.625 407.493 268.57C407.475 268.515 407.477 268.455 407.499 268.402C407.521 268.348 407.561 268.304 407.613 268.278C407.665 268.252 407.724 268.246 407.78 268.26V268.26Z" fill="#263238"/>
<path d="M412.58 267.25C412.871 267.966 413.115 268.701 413.31 269.45C413.519 270.03 413.618 270.644 413.6 271.26C413.6 271.37 413.42 271.38 413.36 271.26C413.016 270.717 412.759 270.123 412.6 269.5C412.35 268.82 412.08 268.14 411.86 267.5C411.827 267.404 411.833 267.3 411.877 267.209C411.921 267.118 411.999 267.048 412.095 267.015C412.19 266.982 412.295 266.988 412.386 267.032C412.477 267.076 412.547 267.154 412.58 267.25Z" fill="#263238"/>
<path d="M412.58 263.55C412.42 262.93 412.25 262.3 412.08 261.68C411.91 261.06 411.67 260.39 411.54 259.74C411.54 259.63 411.36 259.68 411.38 259.74C411.54 260.37 411.62 261.03 411.73 261.67C411.84 262.31 411.96 262.94 412.09 263.58C412.33 264.774 412.63 265.956 412.99 267.12C412.349 267.072 411.727 266.88 411.17 266.56C410.628 266.109 410.24 265.501 410.06 264.82C409.81 264.11 409.58 263.39 409.31 262.68C408.983 261.909 408.718 261.113 408.52 260.3C408.52 260.19 408.34 260.24 408.36 260.3C408.679 262.011 409.168 263.686 409.82 265.3C410.1 265.94 410.31 266.59 410.94 266.91C411.632 267.203 412.378 267.349 413.13 267.34C413.21 267.34 413.34 267.34 413.32 267.22C413.135 265.985 412.888 264.76 412.58 263.55V263.55Z" fill="#263238"/>
<path d="M413.26 271.3C411.71 274.11 409.93 276.8 408.26 279.54C406.59 282.28 405.1 284.94 403.58 287.69C400.527 293.23 397.707 298.897 395.12 304.69C393.84 307.55 392.633 310.44 391.5 313.36C390.283 316.283 389.28 319.291 388.5 322.36C387.773 325.406 387.637 328.563 388.1 331.66C388.667 334.813 389.473 337.919 390.51 340.95C392.627 347.939 395.203 354.78 398.22 361.43C398.32 361.65 398.69 361.48 398.61 361.26C396.45 355.17 394.21 349.11 392.28 342.95C390.4 336.95 388.17 330.78 389.21 324.44C389.781 321.393 390.649 318.409 391.8 315.53C392.9 312.53 394.09 309.64 395.34 306.75C397.82 301.04 400.61 295.5 403.45 289.97C405.04 286.87 406.72 283.82 408.33 280.73C409.94 277.64 411.53 274.44 413.33 271.44C413.45 271.29 413.31 271.2 413.26 271.3Z" fill="#263238"/>
<path d="M442.99 265.31C442.35 264.98 441.37 265.31 440.67 265.31C439.769 265.343 438.867 265.317 437.97 265.23C437.085 265.145 436.207 265.004 435.34 264.81C434.461 264.668 433.626 264.326 432.9 263.81C431.742 262.715 430.799 261.412 430.12 259.97C429.268 258.485 428.612 256.895 428.17 255.24C428.17 255.14 428.01 255.24 428.02 255.29C428.19 256.22 428.28 257.16 428.53 258.08C428.771 258.952 429.086 259.801 429.47 260.62C430.049 262.244 431.03 263.696 432.32 264.84C433.77 265.93 435.78 266.13 437.53 266.26C438.529 266.333 439.531 266.333 440.53 266.26C441.26 266.2 442.47 266.26 443.01 265.67C443.038 265.648 443.06 265.62 443.075 265.588C443.089 265.555 443.096 265.52 443.094 265.485C443.092 265.45 443.081 265.415 443.063 265.385C443.045 265.354 443.02 265.329 442.99 265.31V265.31Z" fill="#263238"/>
<path d="M453.39 399.72C448.423 389.6 443.57 379.417 438.83 369.17C434.09 358.923 429.453 348.6 424.92 338.2C423.677 335.761 422.688 333.201 421.97 330.56C421.35 327.66 422.25 325.05 423.47 322.45C425.757 317.703 428.311 313.089 431.12 308.63C433.9 304.13 436.83 299.74 439.72 295.32C442.724 291.001 445.478 286.513 447.97 281.88C450.335 277.512 451.329 272.532 450.82 267.59C450.18 262.59 448.02 257.92 445.71 253.52L443.85 250.04C443.85 249.95 443.67 250.04 443.72 250.12C446.3 254.74 448.78 259.59 449.98 264.77C450.604 267.33 450.796 269.976 450.55 272.6C450.23 275.254 449.48 277.837 448.33 280.25C446.19 284.97 443.2 289.31 440.33 293.64C437.46 297.97 434.5 302.45 431.69 306.92C428.826 311.401 426.203 316.031 423.83 320.79C422.635 322.876 421.809 325.153 421.39 327.52C421.11 330.13 422.06 332.64 423.07 335C427.46 345.29 432.07 355.49 436.77 365.65C441.47 375.81 446.33 385.97 451.27 396.06L453.15 399.87C453.24 400.03 453.47 399.88 453.39 399.72Z" fill="#263238"/>
<path d="M411.31 211.88C407.71 217 387.74 233.77 369.95 234.75C363.9 235.09 335.74 217.3 330.39 213.93C324.13 209.99 336.59 193.53 340.89 194.25C346.25 195.15 368.29 213.97 372.06 214.07C378.12 214.23 394.36 208.25 406.9 205.6C413.36 204.2 414.12 207.94 411.31 211.88Z" fill="#DD6A57"/>
<path d="M411.34 213.7C406.92 220.33 392.12 231.2 392.12 231.2L390.12 226.68L383.21 211.68C383.21 211.68 396.8 207.29 405.75 205.32C406.805 205.073 407.879 204.912 408.96 204.84C414.63 204.47 415.12 208 411.34 213.7Z" fill="#EBEBEB"/>
<path d="M394.47 209.11C394.646 209.734 394.73 210.381 394.72 211.03C394.735 211.679 394.651 212.326 394.47 212.95C394.137 211.692 394.137 210.368 394.47 209.11V209.11Z" fill="white"/>
<path d="M392.64 216.87C391.385 217.203 390.065 217.203 388.81 216.87C390.065 216.537 391.385 216.537 392.64 216.87V216.87Z" fill="white"/>
<path d="M412.04 206.14C411.416 206.316 410.769 206.401 410.12 206.39C409.471 206.406 408.823 206.321 408.2 206.14C409.458 205.807 410.782 205.807 412.04 206.14V206.14Z" fill="white"/>
<path d="M401.46 213.93C402.021 214.252 402.536 214.649 402.99 215.11C403.456 215.559 403.854 216.074 404.17 216.64C403.048 215.985 402.115 215.051 401.46 213.93V213.93Z" fill="white"/>
<path d="M394.12 223.07C394.681 223.392 395.196 223.789 395.65 224.25C396.116 224.699 396.514 225.215 396.83 225.78C396.267 225.464 395.752 225.07 395.3 224.61C394.836 224.154 394.439 223.636 394.12 223.07V223.07Z" fill="white"/>
<path d="M411.34 213.7C406.92 220.33 392.12 231.2 392.12 231.2L390.12 226.68C395.61 220.22 404.12 210.44 408.96 204.81C414.63 204.47 415.12 208 411.34 213.7Z" fill="#C7C7C7"/>
<path d="M394.81 228.2C393.67 225.44 388.56 214.29 387.29 211.96C387.2 211.79 387.08 211.81 387.15 211.96C389.374 217.505 391.894 222.926 394.7 228.2C394.74 228.26 394.84 228.2 394.81 228.2Z" fill="#263238"/>
<path d="M399.16 226.86C399.16 226.806 399.16 226.752 399.16 226.699C399.16 226.699 399.16 226.699 399.16 226.7V226.86Z" fill="#263238"/>
<path d="M402.66 260.46C404.66 261.87 407.19 263.97 420.03 263.25C420.83 263.2 421.64 263.12 422.46 263C434.67 261.11 450.65 249.28 451.57 248.42C451.57 248.42 437.17 215.65 414.68 202.85C411.9 201.27 406.68 202.85 403.62 205.29C402.52 206.16 399.39 213.29 399.36 219.38C399.33 225.47 400.65 259.06 402.66 260.46Z" fill="#EBEBEB"/>
<path d="M409.95 220.25C410.126 220.874 410.21 221.521 410.2 222.17C410.211 222.815 410.127 223.459 409.95 224.08C409.778 223.458 409.694 222.815 409.7 222.17C409.694 221.522 409.778 220.875 409.95 220.25V220.25Z" fill="white"/>
<path d="M415.12 242.25C415.453 243.508 415.453 244.832 415.12 246.09C414.787 244.832 414.787 243.508 415.12 242.25V242.25Z" fill="white"/>
<path d="M431.12 228.64C431.453 229.898 431.453 231.221 431.12 232.48C430.787 231.221 430.787 229.898 431.12 228.64V228.64Z" fill="white"/>
<path d="M401.87 239.34C402.046 239.964 402.13 240.611 402.12 241.26C402.131 241.905 402.047 242.549 401.87 243.17C401.698 242.548 401.614 241.905 401.62 241.26C401.614 240.611 401.698 239.965 401.87 239.34V239.34Z" fill="white"/>
<path d="M421.98 224.65C421.355 224.826 420.709 224.91 420.06 224.9C419.414 224.91 418.771 224.826 418.15 224.65C418.772 224.479 419.415 224.395 420.06 224.4C420.708 224.394 421.355 224.478 421.98 224.65V224.65Z" fill="white"/>
<path d="M435.57 241.68C434.315 242.013 432.995 242.013 431.74 241.68C432.995 241.346 434.315 241.346 435.57 241.68Z" fill="white"/>
<path d="M414.91 255.2C413.655 255.533 412.335 255.533 411.08 255.2C412.335 254.866 413.655 254.866 414.91 255.2V255.2Z" fill="white"/>
<path d="M438.97 252.59C438.348 252.761 437.705 252.845 437.06 252.84C436.411 252.846 435.765 252.762 435.14 252.59C435.764 252.413 436.411 252.329 437.06 252.34C437.705 252.329 438.349 252.413 438.97 252.59V252.59Z" fill="white"/>
<path d="M412.04 206.14C411.416 206.316 410.769 206.401 410.12 206.39C409.471 206.406 408.823 206.321 408.2 206.14C409.458 205.807 410.782 205.807 412.04 206.14V206.14Z" fill="white"/>
<path d="M418.71 208.63C419.832 209.285 420.765 210.218 421.42 211.34C420.853 211.027 420.337 210.629 419.89 210.16C419.423 209.711 419.026 209.195 418.71 208.63V208.63Z" fill="white"/>
<path d="M438.67 229.99C439.792 230.645 440.725 231.578 441.38 232.7C440.253 232.052 439.317 231.117 438.67 229.99V229.99Z" fill="white"/>
<path d="M406.75 232.28C407.872 232.935 408.805 233.868 409.46 234.99C408.893 234.677 408.377 234.279 407.93 233.81C407.464 233.361 407.066 232.845 406.75 232.28V232.28Z" fill="white"/>
<path d="M425.06 247.71C425.623 248.03 426.138 248.427 426.59 248.89C427.056 249.339 427.454 249.855 427.77 250.42C427.207 250.104 426.692 249.71 426.24 249.25C425.779 248.792 425.382 248.274 425.06 247.71V247.71Z" fill="white"/>
<path d="M401.46 213.93C402.021 214.252 402.536 214.649 402.99 215.11C403.456 215.559 403.854 216.074 404.17 216.64C403.048 215.985 402.115 215.051 401.46 213.93V213.93Z" fill="white"/>
<path d="M399.84 228.64C400.159 228.077 400.556 227.561 401.02 227.11C401.474 226.649 401.989 226.252 402.55 225.93C402.234 226.498 401.837 227.017 401.37 227.47C400.918 227.93 400.403 228.324 399.84 228.64V228.64Z" fill="white"/>
<path d="M443.18 244.96C443.498 244.396 443.896 243.881 444.36 243.43C444.814 242.969 445.329 242.572 445.89 242.25C445.577 242.82 445.179 243.339 444.71 243.79C444.258 244.25 443.743 244.644 443.18 244.96V244.96Z" fill="white"/>
<path d="M402.2 251.5C402.855 250.378 403.788 249.445 404.91 248.79C404.594 249.358 404.197 249.877 403.73 250.33C403.278 250.79 402.763 251.184 402.2 251.5V251.5Z" fill="white"/>
<path d="M426.67 220.02C426.986 219.457 427.38 218.942 427.84 218.49C428.293 218.023 428.812 217.626 429.38 217.31C428.725 218.432 427.792 219.365 426.67 220.02V220.02Z" fill="white"/>
<path d="M420.6 261.03C420.916 260.465 421.313 259.949 421.78 259.5C422.234 259.039 422.749 258.642 423.31 258.32C422.997 258.887 422.599 259.403 422.13 259.85C421.681 260.316 421.165 260.714 420.6 261.03V261.03Z" fill="white"/>
<path d="M420.62 236.34C421.275 235.218 422.208 234.285 423.33 233.63C422.69 234.763 421.753 235.7 420.62 236.34V236.34Z" fill="white"/>
<path d="M406.88 213.93C409.99 213.79 413.73 207.93 414.67 203.73C414.012 201.728 413.251 199.763 412.39 197.84C411.66 195.95 410.89 193.84 410.32 191.84C410.21 191.43 409.03 192.58 409.03 192.58L406.64 193.93L398.74 198.41C400.157 200.686 401.288 203.128 402.11 205.68C402.187 205.954 402.237 206.236 402.26 206.52C402.26 206.52 402.26 206.61 402.26 206.66C402.47 208.29 403.87 214.06 406.88 213.93Z" fill="#DD6A57"/>
<path d="M402.26 206.53C402.26 206.53 402.26 206.62 402.26 206.67C402.702 206.612 403.137 206.512 403.56 206.37C411.88 203.8 409.89 192.85 409.89 192.85L406.62 193.94L398.72 198.42C400.137 200.696 401.268 203.138 402.09 205.69C402.174 205.964 402.231 206.245 402.26 206.53V206.53Z" fill="#263238"/>
<path d="M411.12 179.52C412.68 184.06 410.71 197.39 407.55 200.45C402.97 204.89 395.25 205.57 391.42 200.01C387.7 194.62 390.57 177.3 394.12 174.5C399.31 170.36 408.78 172.82 411.12 179.52Z" fill="#DD6A57"/>
<path d="M398.76 188.56C398.76 188.56 398.82 188.62 398.81 188.65C398.66 189.55 398.63 190.65 399.4 191.01C399.4 191.01 399.4 191.07 399.4 191.06C398.41 190.78 398.46 189.39 398.76 188.56Z" fill="#263238"/>
<path d="M399.69 187.74C401.15 187.84 400.85 190.74 399.5 190.66C398.15 190.58 398.47 187.66 399.69 187.74Z" fill="#263238"/>
<path d="M393.23 187.87C393.23 187.87 393.16 187.87 393.15 187.95C393.09 188.85 392.86 189.88 392.02 190.09V190.14C393.03 190.11 393.32 188.74 393.23 187.87Z" fill="#263238"/>
<path d="M392.52 186.85C391.08 186.59 390.67 189.49 392 189.73C393.33 189.97 393.73 187.06 392.52 186.85Z" fill="#263238"/>
<path d="M400.98 186.53C400.607 186.377 400.243 186.203 399.89 186.01C399.488 185.878 399.138 185.623 398.89 185.28C398.833 185.154 398.82 185.013 398.853 184.879C398.886 184.745 398.962 184.626 399.07 184.54C399.305 184.402 399.573 184.329 399.845 184.329C400.118 184.329 400.385 184.402 400.62 184.54C401.145 184.746 401.573 185.143 401.82 185.65C401.872 185.769 401.887 185.901 401.865 186.029C401.842 186.156 401.782 186.275 401.692 186.369C401.602 186.463 401.487 186.528 401.36 186.557C401.234 186.585 401.101 186.576 400.98 186.53V186.53Z" fill="#263238"/>
<path d="M391.55 185.26C391.95 185.224 392.347 185.164 392.74 185.08C393.165 185.079 393.577 184.934 393.91 184.67C393.993 184.561 394.037 184.427 394.037 184.29C394.037 184.153 393.993 184.019 393.91 183.91C393.721 183.71 393.483 183.564 393.219 183.487C392.956 183.41 392.677 183.404 392.41 183.47C391.855 183.517 391.338 183.77 390.96 184.18C390.874 184.282 390.821 184.407 390.808 184.539C390.794 184.672 390.821 184.805 390.885 184.922C390.949 185.039 391.047 185.133 391.165 185.194C391.284 185.254 391.418 185.277 391.55 185.26V185.26Z" fill="#263238"/>
<path d="M398.02 193.92C397.755 194.254 397.423 194.53 397.046 194.729C396.67 194.929 396.255 195.048 395.83 195.08C395.459 195.11 395.086 195.09 394.72 195.02H394.51L394.31 194.97C394.264 194.954 394.224 194.924 394.196 194.885C394.167 194.846 394.151 194.799 394.15 194.75C394.145 194.72 394.145 194.69 394.15 194.66V194.66V194.59C394.21 193.89 394.38 192.84 394.38 192.84C394.12 192.94 392.76 193.39 392.82 193.03C393.223 189.905 393.943 186.829 394.97 183.85C394.97 183.829 394.978 183.808 394.993 183.793C395.008 183.778 395.029 183.77 395.05 183.77C395.071 183.77 395.092 183.778 395.107 183.793C395.122 183.808 395.13 183.829 395.13 183.85C394.77 186.74 393.91 189.55 393.51 192.44C393.992 192.278 394.493 192.18 395 192.15C395.1 192.15 394.63 194.15 394.63 194.49C395.193 194.607 395.774 194.609 396.338 194.495C396.901 194.382 397.436 194.156 397.91 193.83C398.02 193.79 398.12 193.86 398.02 193.92Z" fill="#263238"/>
<path d="M395.12 194.71C395.453 195.245 395.918 195.686 396.47 195.99C396.779 196.146 397.128 196.202 397.47 196.15C398.21 196.04 398.29 195.38 398.22 194.8C398.179 194.492 398.101 194.19 397.99 193.9C397.144 194.47 396.139 194.754 395.12 194.71V194.71Z" fill="#263238"/>
<path d="M396.51 195.99C396.819 196.146 397.168 196.202 397.51 196.15C398.25 196.04 398.33 195.38 398.26 194.8C397.876 194.769 397.494 194.871 397.176 195.087C396.857 195.303 396.623 195.622 396.51 195.99V195.99Z" fill="#FF99BA"/>
<path d="M409.92 190.64C407.63 190.44 408.01 184.82 408.01 184.82C408.01 184.82 404.52 184.09 402.94 179.22C402.94 179.22 398.34 181.93 394.57 181.13C388.67 179.88 389.05 172.13 391.32 170.66C394.53 168.53 400.05 171.93 400.05 171.93C400.05 171.93 408.6 169.81 410.96 175.63C412.057 175.738 413.072 176.259 413.799 177.087C414.527 177.915 414.913 178.988 414.88 180.09C415.02 184.28 411.63 190.79 409.92 190.64Z" fill="#263238"/>
<path d="M408.81 185.5C407.113 185.159 405.579 184.261 404.45 182.95C403.846 182.237 403.422 181.391 403.214 180.481C403.005 179.571 403.017 178.624 403.25 177.72C403.244 177.704 403.234 177.691 403.221 177.682C403.207 177.672 403.191 177.667 403.175 177.667C403.159 177.667 403.143 177.672 403.129 177.682C403.116 177.691 403.106 177.704 403.1 177.72C402.806 178.662 402.724 179.658 402.858 180.637C402.993 181.615 403.342 182.551 403.88 183.38C404.422 184.167 405.163 184.797 406.027 185.206C406.891 185.615 407.847 185.789 408.8 185.71C408.828 185.711 408.855 185.701 408.876 185.682C408.896 185.664 408.909 185.637 408.91 185.61C408.911 185.582 408.901 185.555 408.883 185.534C408.864 185.513 408.838 185.501 408.81 185.5V185.5Z" fill="#263238"/>
<path d="M415.26 177.65C414.13 176.13 412.35 175.85 410.59 175.86C410.49 175.86 410.49 176.03 410.59 176.02C411.469 176.012 412.334 176.241 413.094 176.683C413.854 177.124 414.481 177.762 414.91 178.53C415.256 179.254 415.452 180.041 415.488 180.843C415.525 181.646 415.399 182.447 415.12 183.2C414.362 186.153 412.534 188.719 409.99 190.4C409.99 190.4 409.99 190.5 409.99 190.47C411.436 189.617 412.693 188.479 413.683 187.124C414.673 185.769 415.377 184.226 415.75 182.59C416.12 181 416.29 179.05 415.26 177.65Z" fill="#263238"/>
<path d="M400.27 172.2C399.559 170.976 398.424 170.054 397.08 169.61C395.445 169.116 393.686 169.244 392.14 169.97C391.524 170.276 391 170.739 390.622 171.314C390.245 171.889 390.026 172.553 389.99 173.24C389.947 174.836 390.452 176.4 391.42 177.67C391.42 177.67 391.5 177.67 391.48 177.67C390.71 176.482 390.326 175.085 390.38 173.67C390.415 172.993 390.641 172.339 391.032 171.785C391.424 171.231 391.964 170.8 392.59 170.54C395.06 169.54 398.59 169.81 400.14 172.33C400.19 172.39 400.32 172.3 400.27 172.2Z" fill="#263238"/>
<path d="M408.62 190.41C408.62 190.41 411.55 186.09 413.51 187.13C415.47 188.17 413.31 194.41 411.04 195.29C410.756 195.422 410.449 195.496 410.137 195.507C409.824 195.518 409.512 195.466 409.22 195.354C408.928 195.242 408.662 195.073 408.436 194.855C408.211 194.638 408.032 194.378 407.91 194.09L408.62 190.41Z" fill="#DD6A57"/>
<path d="M258.61 280.92H380.11V195.84H258.61V280.92Z" fill="#263238"/>
<path d="M282.87 230.09C288.431 230.09 292.94 225.581 292.94 220.02C292.94 214.458 288.431 209.95 282.87 209.95C277.308 209.95 272.8 214.458 272.8 220.02C272.8 225.581 277.308 230.09 282.87 230.09Z" fill="#38CBA5"/>
<path d="M312.55 262.41H380.12L346.33 216.61L312.55 262.41Z" fill="#C7C7C7"/>
<path d="M286.07 262.62H341.85L313.96 232.81L286.07 262.62Z" fill="white"/>
<path d="M380.1 262.58H258.6V280.91H380.1V262.58Z" fill="#38CBA5"/>
<path d="M422.53 213.2C425.68 222.01 421.18 254.33 415.85 261.14C407.94 271.28 392.31 280.61 386.33 283.52C383.73 284.79 372.02 266.08 374.57 264.33C380.04 260.57 397.51 251.61 398.99 249.83C400.47 248.05 408.43 230.95 411.62 221.32C415.9 208.4 420.94 208.73 422.53 213.2Z" fill="#DD6A57"/>
<path d="M386.32 283.57C378.03 288.3 361.54 287.57 359.32 286.91C357.41 286.34 356.42 286.02 356.42 286.02C352.96 285.02 352.03 283.13 352.03 283.13C352.03 283.13 347.7 283.19 347.23 280.57C346.7 277.65 352.88 278.14 356.45 276.33C364.63 272.19 375.1 264.01 377.34 262.58L386.32 283.57Z" fill="#DD6A57"/>
<path d="M368.05 278.01C365.671 279.255 363.208 280.335 360.68 281.24C357.855 282.052 354.974 282.657 352.06 283.05C352.041 283.05 352.024 283.057 352.01 283.07C351.997 283.083 351.99 283.101 351.99 283.12C351.99 283.138 351.997 283.156 352.01 283.169C352.024 283.182 352.041 283.19 352.06 283.19C357.768 283.023 363.322 281.298 368.12 278.2C368.132 278.184 368.14 278.165 368.143 278.145C368.146 278.125 368.144 278.104 368.137 278.086C368.13 278.067 368.119 278.05 368.103 278.036C368.088 278.023 368.07 278.014 368.05 278.01Z" fill="#263238"/>
<path d="M371.26 282.59C366.54 284.573 361.505 285.704 356.39 285.93C356.39 285.93 356.39 285.93 356.39 285.93C361.584 286.292 366.777 285.205 371.39 282.79C371.5 282.76 371.43 282.52 371.26 282.59Z" fill="#263238"/>
<path d="M365.96 270.72C366.81 269.72 366.32 269.3 364.07 269.72C361.82 270.14 353.28 273.65 352.3 270.57C351.32 267.49 363.45 262.69 367.24 262.29C370.666 262.113 374.1 262.214 377.51 262.59C375.34 263.99 370.19 267.9 365.96 270.72Z" fill="#DD6A57"/>
<path d="M413.72 215.4C419.25 203.78 424.29 206.86 424.72 218.4C424.888 226.388 424.534 234.378 423.66 242.32L403.66 236.58L413.72 215.4Z" fill="#EBEBEB"/>
<path d="M409.95 220.25C410.126 220.874 410.21 221.521 410.2 222.17C410.211 222.815 410.127 223.459 409.95 224.08C409.778 223.458 409.694 222.815 409.7 222.17C409.694 221.522 409.778 220.875 409.95 220.25V220.25Z" fill="white"/>
<path d="M421.98 224.65C421.355 224.826 420.709 224.91 420.06 224.9C419.414 224.91 418.771 224.826 418.15 224.65C418.772 224.479 419.415 224.395 420.06 224.4C420.708 224.394 421.355 224.478 421.98 224.65V224.65Z" fill="white"/>
<path d="M418.71 208.63C419.832 209.285 420.765 210.218 421.42 211.34C420.853 211.027 420.337 210.629 419.89 210.16C419.423 209.711 419.026 209.195 418.71 208.63V208.63Z" fill="white"/>
<path d="M406.75 232.28C407.872 232.935 408.805 233.868 409.46 234.99C408.893 234.677 408.377 234.279 407.93 233.81C407.464 233.361 407.066 232.845 406.75 232.28V232.28Z" fill="white"/>
<path d="M420.62 236.34C421.275 235.218 422.208 234.285 423.33 233.63C422.69 234.763 421.753 235.7 420.62 236.34V236.34Z" fill="white"/>
<path d="M411.81 218.95C411.06 220.47 410.27 221.95 409.48 223.48C409.62 222.76 409.73 222.05 409.81 221.32H409.76C409.64 221.89 409.51 222.45 409.4 223.02L409.25 223.84C409.245 223.9 409.245 223.96 409.25 224.02C408.64 225.19 408.03 226.37 407.46 227.56C406.77 228.98 406.12 230.41 405.46 231.85C404.8 233.29 404.19 235.04 403.46 236.49C404.089 236.747 404.743 236.941 405.41 237.07C405.59 237.14 405.68 236.96 405.49 236.94C405.3 236.92 403.82 236.31 403.8 236.3C404.45 234.85 405.27 233.48 405.97 232.06C406.67 230.64 407.37 229.23 408.03 227.79C409.39 224.88 410.58 221.9 411.92 218.98C411.88 218.93 411.82 218.91 411.81 218.95Z" fill="#263238"/>
<path d="M425.61 225.87C425.42 226.47 425.21 227.06 425.06 227.67L424.88 228.42C424.95 226.34 425.02 224.27 425.08 222.19C424.8 225.58 424.5 228.97 424.28 232.37C423.965 235.624 423.815 238.891 423.83 242.16C423.229 242.014 422.617 241.917 422 241.87C422.657 242.159 423.35 242.357 424.06 242.46C424.472 239.068 424.709 235.657 424.77 232.24C424.77 231.3 424.84 230.37 424.88 229.44C424.99 228.86 425.15 228.29 425.31 227.72C425.47 227.15 425.58 226.5 425.71 225.89C425.68 225.85 425.62 225.84 425.61 225.87Z" fill="#263238"/>
<path d="M422.88 239.2C420.06 238.2 408.37 234.51 405.79 233.88C405.61 233.83 405.54 233.88 405.72 234C411.326 236.08 417.041 237.852 422.84 239.31C422.853 239.312 422.867 239.309 422.879 239.302C422.89 239.295 422.899 239.284 422.904 239.271C422.909 239.258 422.909 239.244 422.904 239.231C422.9 239.218 422.891 239.207 422.88 239.2V239.2Z" fill="#263238"/>
<path d="M319.21 210.11C321.97 210.95 321.39 207.21 321.39 207.21C321.39 207.21 323.53 212.39 326.72 212.21C329.91 212.03 328.92 207.48 328.87 207.16C328.98 207.43 331.08 212.16 334.26 211.58C337.44 211 335.92 206.58 335.81 206.35C336 206.57 338.57 209.49 340.88 208.51C344.88 206.83 338.51 199.19 338.97 195.72L344.57 195.89C344.75 195.89 344.94 195.89 345.12 195.8L345.33 192.94C343.54 192.213 341.811 191.343 340.16 190.34C338.05 189.16 336.01 188.08 334.5 188.05C333.819 188.013 333.144 188.197 332.575 188.573C332.006 188.949 331.573 189.499 331.34 190.14C331.34 190.14 329.7 187.54 327.18 187.91C325.89 188.1 325.05 190.34 325.05 190.34C324.649 189.771 324.099 189.325 323.46 189.049C322.821 188.774 322.119 188.681 321.43 188.78C319.66 189.14 319.08 191.33 319.08 191.33C319.08 191.33 316.84 190.01 315.15 190.97C311.74 192.85 313.29 208.29 319.21 210.11Z" fill="#DD6A57"/>
<path d="M339.69 195.39L344.57 195.84C344.75 195.84 344.94 195.84 345.12 195.75C351.28 194.63 355.12 187.59 350.65 187.08C347.25 186.69 343.59 191.19 340.16 190.29L339.69 195.39Z" fill="#DD6A57"/>
<path d="M325.01 190.2C325.01 190.14 324.91 190.14 324.9 190.2C324.099 196.166 325.461 202.221 328.74 207.27C328.86 207.44 329.14 207.48 329.02 207.27C326.95 203.76 325.12 195.2 325.01 190.2Z" fill="#263238"/>
<path d="M336.17 206.57C333.02 201.57 331.77 196.12 331.3 190.31C331.3 190.23 331.19 190.25 331.17 190.31C330.63 193.22 331.32 196.89 332.09 199.7C332.762 202.334 334.11 204.747 336 206.7C336.12 206.75 336.24 206.67 336.17 206.57Z" fill="#263238"/>
</svg>
