<svg width="500" height="500" viewBox="0 0 500 500" fill="none" xmlns="http://www.w3.org/2000/svg">
<g clip-path="url(#clip0_655_167)">
<path d="M488 384.4H-12V384.65H488V384.4Z" fill="#EBEBEB"/>
<path d="M410.56 391.21H384.59V391.46H410.56V391.21Z" fill="#EBEBEB"/>
<path d="M303.66 393.01H294.97V393.26H303.66V393.01Z" fill="#EBEBEB"/>
<path d="M437.9 400.49H418.71V400.74H437.9V400.49Z" fill="#EBEBEB"/>
<path d="M56.71 392.89H40.46V393.14H56.71V392.89Z" fill="#EBEBEB"/>
<path d="M98.8901 392.89H62.0601V393.14H98.8901V392.89Z" fill="#EBEBEB"/>
<path d="M283.34 397.11H189.66V397.36H283.34V397.11Z" fill="#EBEBEB"/>
<path d="M225 339.8H31.91C30.3973 339.797 28.9475 339.195 27.8788 338.124C26.8102 337.054 26.21 335.603 26.21 334.09V62.66C26.2231 61.156 26.8292 59.718 27.8964 58.6582C28.9637 57.5985 30.4059 57.0026 31.91 57H225C226.514 57 227.967 57.6016 229.038 58.6724C230.108 59.7433 230.71 61.1956 230.71 62.71V334.09C230.71 335.604 230.108 337.057 229.038 338.128C227.967 339.198 226.514 339.8 225 339.8V339.8ZM31.91 57.2C30.4636 57.2026 29.0774 57.7791 28.0556 58.8027C27.0338 59.8264 26.46 61.2136 26.46 62.66V334.09C26.46 335.536 27.0338 336.924 28.0556 337.947C29.0774 338.971 30.4636 339.547 31.91 339.55H225C226.447 339.547 227.834 338.971 228.858 337.948C229.881 336.924 230.457 335.537 230.46 334.09V62.66C230.457 61.2127 229.881 59.8255 228.858 58.8021C227.834 57.7787 226.447 57.2026 225 57.2H31.91Z" fill="#EBEBEB"/>
<path d="M441.31 339.8H248.21C246.696 339.797 245.246 339.195 244.175 338.125C243.105 337.054 242.503 335.604 242.5 334.09V62.66C242.516 61.1551 243.124 59.7171 244.193 58.6576C245.262 57.5981 246.705 57.0025 248.21 57H441.31C442.812 57.0052 444.252 57.6022 445.317 58.6617C446.382 59.7212 446.987 61.1578 447 62.66V334.09C447 335.601 446.401 337.05 445.335 338.121C444.268 339.191 442.821 339.795 441.31 339.8V339.8ZM248.21 57.2C246.763 57.2026 245.375 57.7787 244.352 58.8021C243.329 59.8255 242.753 61.2127 242.75 62.66V334.09C242.753 335.537 243.329 336.924 244.352 337.948C245.375 338.971 246.763 339.547 248.21 339.55H441.31C442.757 339.547 444.145 338.971 445.168 337.948C446.191 336.924 446.767 335.537 446.77 334.09V62.66C446.767 61.2127 446.191 59.8255 445.168 58.8021C444.145 57.7787 442.757 57.2026 441.31 57.2H248.21Z" fill="#EBEBEB"/>
<path d="M257.66 384.4H282.67V225H257.66V384.4Z" fill="#EBEBEB"/>
<path d="M262.42 384.4H257.67V362.93H267.4L262.42 384.4Z" fill="#F5F5F5"/>
<path d="M400.37 384.4H425.38V225H400.37V384.4Z" fill="#EBEBEB"/>
<path d="M257.66 371.23H404.52V225L257.66 225V371.23Z" fill="#F5F5F5"/>
<path d="M399.64 345H356.11C355.958 345 355.812 344.94 355.703 344.834C355.595 344.727 355.533 344.582 355.53 344.43V232C355.53 231.846 355.591 231.699 355.7 231.59C355.809 231.481 355.956 231.42 356.11 231.42H364.11C364.204 231.42 364.296 231.444 364.378 231.49C364.46 231.535 364.53 231.601 364.58 231.68C365.598 233.284 366.919 234.673 368.47 235.77C369.944 236.835 371.712 237.415 373.53 237.43H382.14C385.47 237.43 388.64 235.43 391.08 231.68C391.133 231.601 391.205 231.536 391.288 231.491C391.372 231.446 391.465 231.421 391.56 231.42H399.56C399.636 231.42 399.711 231.435 399.78 231.464C399.85 231.494 399.914 231.536 399.967 231.59C400.02 231.644 400.061 231.708 400.09 231.779C400.118 231.849 400.131 231.924 400.13 232V344.39C400.142 344.535 400.097 344.679 400.006 344.792C399.915 344.906 399.784 344.98 399.64 345ZM356.64 343.85H399.03V232.6H391.87C389.23 236.48 385.78 238.6 382.14 238.6H373.53C371.481 238.58 369.488 237.93 367.82 236.74C366.241 235.616 364.885 234.209 363.82 232.59H356.66L356.64 343.85Z" fill="#E6E6E6"/>
<path d="M352.86 345H309.33C309.178 345 309.032 344.94 308.923 344.834C308.815 344.727 308.753 344.582 308.75 344.43V232C308.75 231.846 308.811 231.699 308.92 231.59C309.029 231.481 309.176 231.42 309.33 231.42H316.93C317.025 231.421 317.118 231.446 317.202 231.491C317.285 231.536 317.357 231.601 317.41 231.68C318.422 233.285 319.74 234.675 321.29 235.77C322.765 236.832 324.532 237.412 326.35 237.43H335C338.32 237.43 341.5 235.43 343.94 231.68C343.99 231.601 344.06 231.535 344.142 231.49C344.224 231.444 344.316 231.42 344.41 231.42H352.9C352.976 231.42 353.051 231.435 353.12 231.464C353.19 231.494 353.254 231.536 353.307 231.59C353.36 231.644 353.401 231.708 353.43 231.779C353.458 231.849 353.471 231.924 353.47 232V344.39C353.476 344.472 353.464 344.554 353.436 344.63C353.407 344.707 353.362 344.777 353.305 344.834C353.247 344.892 353.177 344.937 353.1 344.966C353.024 344.994 352.942 345.006 352.86 345V345ZM309.86 343.85H352.25V232.6H344.64C342 236.48 338.56 238.6 334.92 238.6H326.31C324.261 238.58 322.268 237.93 320.6 236.74C319.021 235.616 317.665 234.209 316.6 232.59H309.9L309.86 343.85Z" fill="#E6E6E6"/>
<path d="M306.08 345H262.54C262.39 344.997 262.246 344.936 262.14 344.83C262.033 344.724 261.973 344.58 261.97 344.43V232C261.97 231.848 262.03 231.702 262.136 231.593C262.243 231.485 262.388 231.423 262.54 231.42H270.15C270.245 231.421 270.338 231.446 270.422 231.491C270.505 231.536 270.577 231.601 270.63 231.68C271.642 233.285 272.96 234.675 274.51 235.77C275.985 236.832 277.752 237.412 279.57 237.43H288.18C291.51 237.43 294.68 235.43 297.13 231.68C297.18 231.601 297.25 231.535 297.332 231.49C297.414 231.444 297.506 231.42 297.6 231.42H306.08C306.156 231.42 306.231 231.435 306.3 231.464C306.37 231.494 306.434 231.536 306.487 231.59C306.54 231.644 306.581 231.708 306.609 231.779C306.638 231.849 306.651 231.924 306.65 232V344.39C306.655 344.468 306.645 344.547 306.619 344.62C306.592 344.694 306.551 344.762 306.498 344.819C306.444 344.876 306.38 344.922 306.308 344.953C306.236 344.984 306.158 345 306.08 345V345ZM263.08 343.85H305.47V232.6H297.87C295.23 236.48 291.79 238.6 288.14 238.6H279.53C277.481 238.58 275.488 237.93 273.82 236.74C272.241 235.616 270.885 234.209 269.82 232.59H263.1L263.08 343.85Z" fill="#E6E6E6"/>
<path d="M399.77 384.4H404.52V362.93H394.79L399.77 384.4Z" fill="#F5F5F5"/>
<path d="M380.31 189.77H358.75C356.066 189.77 353.89 191.946 353.89 194.63V220.14C353.89 222.824 356.066 225 358.75 225H380.31C382.994 225 385.17 222.824 385.17 220.14V194.63C385.17 191.946 382.994 189.77 380.31 189.77Z" fill="#EBEBEB"/>
<path d="M394.98 197.9H378.4C376.334 197.9 374.66 199.574 374.66 201.64V221.26C374.66 223.325 376.334 225 378.4 225H394.98C397.046 225 398.72 223.325 398.72 221.26V201.64C398.72 199.574 397.046 197.9 394.98 197.9Z" fill="#F5F5F5"/>
<path d="M270.17 216.17C270.17 216.17 270.94 225 300.51 225C330.08 225 330.84 216.17 330.84 216.17H270.17Z" fill="#F0F0F0"/>
<path d="M156.4 169.31L391.83 169.31V75.3701L156.4 75.3701V169.31Z" fill="#F0F0F0"/>
<path d="M139.89 169.31L388.96 169.31V75.3701L139.89 75.3701V169.31Z" fill="#F5F5F5"/>
<path d="M147.3 82.7699V161.9L381.56 161.9V82.7699L147.3 82.7699Z" fill="white"/>
<path d="M137.2 345.31H127.84C127.91 337.23 127.84 295.96 127.19 249C126.61 205.47 125.57 188 124.69 181.37L132.21 194C134.82 203.89 139.21 220.83 139.54 231.23C140.72 264 136.13 310.94 137.2 345.31Z" fill="#E6E6E6"/>
<path d="M144.3 188C156.77 164.46 181.67 152.17 207.12 140.6C217.12 136.06 189.07 192.4 168.68 217.94C152.84 237.77 137.53 237.33 132.93 256.94C132.05 234.21 133.55 208.32 144.3 188Z" fill="#E6E6E6"/>
<path d="M120.63 227.86C109.63 213.94 91.39 210.37 72.9 207.42C65.65 206.25 90.9 239.92 107.49 253.63C120.41 264.29 130.7 260.91 135.99 273.63C134.05 257.61 130.15 239.85 120.63 227.86Z" fill="#E6E6E6"/>
<path d="M142.88 254.47C151.47 243.66 165.6 240.89 179.96 238.59C185.6 237.68 165.96 263.84 153.09 274.5C143.09 282.78 135.09 280.15 130.94 290.06C132.45 277.59 135.48 263.79 142.88 254.47Z" fill="#E6E6E6"/>
<path d="M125.21 296.87C119.29 289.56 109.65 287.76 99.85 286.29C96.01 285.71 109.52 303.39 118.39 310.57C125.27 316.14 130.7 314.3 133.56 321.02C132.46 312.54 130.3 303.16 125.21 296.87Z" fill="#E6E6E6"/>
<path d="M130.79 188.91C123.89 165.83 96.6601 129.84 68.6501 122.44C57.6501 119.53 97.1801 177.95 110.72 207.02C121.26 229.65 131.17 243.39 132.58 259.61C139.57 239.22 137.68 212 130.79 188.91Z" fill="#E6E6E6"/>
<path d="M130.07 384.4C146.2 384.4 159.54 382.01 160.46 365.9L163.15 338.37H97L99.69 365.9C100.6 382 113.93 384.4 130.07 384.4Z" fill="#F0F0F0"/>
<path d="M92.6901 343.99H167.44L169.58 328.75H90.5601L92.6901 343.99Z" fill="#F0F0F0"/>
<path d="M238 429.56C345.082 429.56 431.89 424.492 431.89 418.24C431.89 411.988 345.082 406.92 238 406.92C130.917 406.92 44.11 411.988 44.11 418.24C44.11 424.492 130.917 429.56 238 429.56Z" fill="#F5F5F5"/>
<path d="M292 265.13H427C434.462 265.067 441.617 262.151 446.996 256.979C452.376 251.808 455.573 244.774 455.93 237.32L458.85 164.72C458.913 163.555 458.736 162.389 458.331 161.294C457.926 160.199 457.3 159.2 456.493 158.356C455.687 157.513 454.715 156.844 453.64 156.39C452.564 155.937 451.407 155.709 450.24 155.72H305.34C302.928 155.738 300.614 156.682 298.878 158.357C297.142 160.032 296.115 162.31 296.01 164.72L293.08 237.32C292.725 244.773 289.531 251.807 284.153 256.979C278.775 262.15 271.621 265.067 264.16 265.13H292Z" fill="#38CBA5"/>
<path opacity="0.7" d="M292 265.13H427C434.462 265.067 441.617 262.151 446.996 256.979C452.376 251.808 455.573 244.774 455.93 237.32L458.85 164.72C458.913 163.555 458.736 162.389 458.331 161.294C457.926 160.199 457.3 159.2 456.493 158.356C455.687 157.513 454.715 156.844 453.64 156.39C452.564 155.937 451.407 155.709 450.24 155.72H305.34C302.928 155.738 300.614 156.682 298.878 158.357C297.142 160.032 296.115 162.31 296.01 164.72L293.08 237.32C292.725 244.773 289.531 251.807 284.153 256.979C278.775 262.15 271.621 265.067 264.16 265.13H292Z" fill="white"/>
<path opacity="0.6" d="M436.1 187.77H316.69C316.303 187.774 315.919 187.697 315.563 187.546C315.206 187.394 314.885 187.17 314.619 186.888C314.354 186.607 314.149 186.273 314.018 185.909C313.888 185.544 313.834 185.157 313.86 184.77L314.18 177C314.216 176.211 314.553 175.466 315.123 174.919C315.692 174.372 316.45 174.064 317.24 174.06H436.65C437.031 174.057 437.41 174.132 437.761 174.28C438.113 174.428 438.43 174.647 438.694 174.922C438.958 175.197 439.163 175.523 439.297 175.881C439.43 176.238 439.489 176.619 439.47 177L439.16 184.77C439.134 185.568 438.802 186.325 438.232 186.884C437.662 187.443 436.898 187.76 436.1 187.77V187.77Z" fill="white"/>
<path opacity="0.6" d="M436.31 202.44H315.31C315.03 202.449 314.752 202.4 314.492 202.294C314.233 202.189 313.998 202.03 313.804 201.828C313.61 201.627 313.46 201.386 313.365 201.123C313.269 200.86 313.23 200.58 313.25 200.3L313.37 197.36C313.398 196.786 313.645 196.245 314.06 195.847C314.474 195.449 315.025 195.225 315.6 195.22H436.6C436.875 195.22 437.147 195.276 437.399 195.385C437.651 195.494 437.879 195.654 438.066 195.855C438.254 196.055 438.398 196.293 438.49 196.552C438.582 196.811 438.619 197.086 438.6 197.36L438.49 200.3C438.46 200.865 438.22 201.398 437.816 201.794C437.413 202.191 436.875 202.421 436.31 202.44V202.44Z" fill="white"/>
<path opacity="0.6" d="M435.87 213.42H314.87C314.59 213.428 314.312 213.377 314.053 213.27C313.794 213.163 313.56 213.004 313.367 212.801C313.174 212.598 313.025 212.357 312.931 212.093C312.837 211.83 312.799 211.549 312.82 211.27L312.94 208.33C312.966 207.757 313.21 207.215 313.623 206.817C314.036 206.419 314.586 206.194 315.16 206.19H436.16C436.435 206.189 436.707 206.245 436.959 206.354C437.211 206.464 437.438 206.624 437.626 206.824C437.814 207.025 437.958 207.262 438.05 207.522C438.142 207.781 438.179 208.056 438.16 208.33L438.04 211.27C438.018 211.836 437.781 212.373 437.378 212.772C436.976 213.171 436.437 213.403 435.87 213.42Z" fill="white"/>
<path d="M404.15 129.6C403.356 127.793 402.381 126.071 401.24 124.46L402.06 123.88C403.24 125.545 404.246 127.328 405.06 129.2L404.15 129.6Z" fill="#38CBA5"/>
<path d="M406.564 142.575L405.842 160.17L406.841 160.211L407.563 142.616L406.564 142.575Z" fill="#38CBA5"/>
<path d="M400.23 237.32L404.05 142.6C404.227 138.996 403.667 135.393 402.402 132.013C401.138 128.633 399.197 125.546 396.699 122.943C394.2 120.339 391.196 118.273 387.87 116.871C384.545 115.469 380.969 114.761 377.36 114.79H214.59C218.199 114.76 221.776 115.467 225.102 116.868C228.428 118.27 231.433 120.336 233.932 122.94C236.431 125.544 238.372 128.631 239.635 132.011C240.899 135.392 241.459 138.995 241.28 142.6V142.6L237.47 237.32C236.85 252.68 256.13 265.13 271.47 265.13H426.92C423.311 265.16 419.734 264.453 416.408 263.052C413.082 261.65 410.077 259.584 407.578 256.98C405.079 254.376 403.138 251.289 401.875 247.909C400.611 244.528 400.052 240.925 400.23 237.32V237.32Z" fill="#38CBA5"/>
<path d="M370.68 327.9H161.57C160.4 327.909 159.241 327.68 158.162 327.227C157.084 326.774 156.109 326.106 155.297 325.264C154.485 324.422 153.853 323.424 153.439 322.33C153.025 321.236 152.838 320.069 152.89 318.9L158.79 172.51C158.915 170.094 159.957 167.818 161.704 166.145C163.451 164.472 165.771 163.53 168.19 163.51H377.3C378.47 163.501 379.629 163.73 380.708 164.183C381.786 164.636 382.761 165.304 383.573 166.146C384.385 166.988 385.017 167.986 385.431 169.08C385.845 170.175 386.032 171.341 385.98 172.51L380.09 318.9C379.96 321.316 378.915 323.591 377.167 325.263C375.419 326.935 373.099 327.878 370.68 327.9V327.9Z" fill="white"/>
<path d="M370.68 328.4H161.57C160.33 328.408 159.101 328.164 157.958 327.681C156.816 327.199 155.783 326.489 154.924 325.594C154.065 324.699 153.398 323.639 152.962 322.478C152.526 321.317 152.332 320.079 152.39 318.84L158.29 172.45C158.413 169.899 159.506 167.492 161.347 165.722C163.188 163.951 165.636 162.953 168.19 162.93H377.3C378.541 162.919 379.771 163.162 380.915 163.643C382.059 164.125 383.093 164.835 383.952 165.73C384.812 166.625 385.479 167.686 385.914 168.849C386.349 170.011 386.541 171.25 386.48 172.49L380.59 318.88C380.467 321.433 379.372 323.841 377.529 325.612C375.686 327.382 373.235 328.38 370.68 328.4V328.4ZM168.19 163.93C165.895 163.953 163.695 164.852 162.04 166.443C160.386 168.034 159.402 170.197 159.29 172.49L153.39 318.88C153.336 319.985 153.507 321.089 153.895 322.125C154.282 323.16 154.877 324.106 155.643 324.904C156.409 325.702 157.329 326.335 158.349 326.764C159.368 327.193 160.464 327.41 161.57 327.4H370.68C372.977 327.38 375.179 326.482 376.836 324.891C378.493 323.299 379.478 321.134 379.59 318.84L385.48 172.45C385.535 171.345 385.363 170.241 384.975 169.206C384.588 168.17 383.993 167.224 383.227 166.426C382.461 165.628 381.541 164.995 380.521 164.566C379.502 164.137 378.406 163.921 377.3 163.93H168.19Z" fill="#38CBA5"/>
<path d="M371.41 171.46H173.41C171.7 171.474 170.06 172.141 168.827 173.326C167.594 174.51 166.862 176.122 166.78 177.83L162 296.75H372.74L377.53 177.83C377.571 177.004 377.443 176.178 377.153 175.403C376.863 174.629 376.418 173.921 375.845 173.325C375.271 172.728 374.582 172.255 373.82 171.934C373.057 171.614 372.237 171.452 371.41 171.46V171.46Z" fill="#38CBA5"/>
<path opacity="0.3" d="M191.93 162.93L187.2 280.57C187.163 281.349 187.286 282.128 187.56 282.858C187.835 283.588 188.256 284.254 188.797 284.816C189.338 285.378 189.988 285.823 190.707 286.125C191.427 286.426 192.2 286.578 192.98 286.57H343.7C345.313 286.559 346.86 285.932 348.024 284.816C349.188 283.7 349.881 282.181 349.96 280.57L354.7 162.93H191.93Z" fill="black"/>
<path d="M349.55 114.79H214.55C207.088 114.851 199.933 117.767 194.555 122.939C189.176 128.111 185.983 135.146 185.63 142.6L179.99 282.6C179.955 283.379 180.078 284.157 180.353 284.886C180.629 285.615 181.049 286.281 181.59 286.842C182.131 287.404 182.781 287.849 183.499 288.151C184.218 288.454 184.99 288.606 185.77 288.6H336.53C338.142 288.587 339.688 287.958 340.851 286.843C342.015 285.728 342.708 284.21 342.79 282.6L348.43 142.6C348.787 135.146 351.984 128.112 357.364 122.941C362.743 117.769 369.898 114.853 377.36 114.79H349.55Z" fill="#38CBA5"/>
<path opacity="0.7" d="M349.55 114.79H214.55C207.088 114.851 199.933 117.767 194.555 122.939C189.176 128.111 185.983 135.146 185.63 142.6L179.99 282.6C179.955 283.379 180.078 284.157 180.353 284.886C180.629 285.615 181.049 286.281 181.59 286.842C182.131 287.404 182.781 287.849 183.499 288.151C184.218 288.454 184.99 288.606 185.77 288.6H336.53C338.142 288.587 339.688 287.958 340.851 286.843C342.015 285.728 342.708 284.21 342.79 282.6L348.43 142.6C348.787 135.146 351.984 128.112 357.364 122.941C362.743 117.769 369.898 114.853 377.36 114.79H349.55Z" fill="white"/>
<path d="M381 297.25H153.78C153.647 297.25 153.52 297.197 153.426 297.104C153.333 297.01 153.28 296.883 153.28 296.75C153.28 296.617 153.333 296.49 153.426 296.396C153.52 296.303 153.647 296.25 153.78 296.25H381C381.133 296.25 381.26 296.303 381.354 296.396C381.447 296.49 381.5 296.617 381.5 296.75C381.5 296.883 381.447 297.01 381.354 297.104C381.26 297.197 381.133 297.25 381 297.25Z" fill="#38CBA5"/>
<path opacity="0.1" d="M333.79 211.42H194.79C194.35 211.423 193.914 211.337 193.508 211.166C193.103 210.995 192.736 210.743 192.431 210.426C192.126 210.109 191.889 209.733 191.734 209.321C191.579 208.909 191.51 208.47 191.53 208.03L193.68 154.8C193.724 153.894 194.113 153.038 194.767 152.409C195.422 151.781 196.292 151.427 197.2 151.42H336.2C336.64 151.416 337.076 151.501 337.481 151.671C337.887 151.84 338.253 152.091 338.558 152.408C338.864 152.724 339.101 153.099 339.256 153.511C339.411 153.922 339.481 154.361 339.46 154.8L337.31 208C337.277 208.914 336.892 209.779 336.236 210.416C335.581 211.053 334.704 211.413 333.79 211.42V211.42Z" fill="#38CBA5"/>
<path opacity="0.6" d="M271 271.42H192.35C191.908 271.424 191.469 271.336 191.062 271.163C190.655 270.991 190.288 270.736 189.983 270.415C189.678 270.095 189.443 269.715 189.291 269.299C189.139 268.884 189.074 268.442 189.1 268L191 221.36C191.048 220.46 191.437 219.613 192.087 218.989C192.736 218.365 193.599 218.011 194.5 218H273.19C273.63 217.997 274.065 218.083 274.47 218.254C274.876 218.425 275.241 218.677 275.546 218.995C275.85 219.312 276.086 219.688 276.24 220.1C276.394 220.512 276.462 220.951 276.44 221.39L274.57 268C274.531 268.921 274.138 269.791 273.473 270.428C272.807 271.065 271.921 271.421 271 271.42V271.42Z" fill="#38CBA5"/>
<path d="M241 244.69L226.24 235.97L225.54 253.42L241 244.69Z" fill="white"/>
<path d="M331.37 271.42H284.71C284.27 271.423 283.834 271.336 283.428 271.166C283.023 270.995 282.656 270.743 282.351 270.426C282.046 270.108 281.809 269.732 281.654 269.321C281.499 268.909 281.43 268.469 281.45 268.03L283.33 221.36C283.376 220.451 283.767 219.595 284.423 218.965C285.079 218.335 285.95 217.979 286.86 217.97H333.52C333.96 217.967 334.396 218.053 334.802 218.224C335.207 218.395 335.574 218.647 335.879 218.964C336.184 219.281 336.421 219.657 336.576 220.069C336.731 220.481 336.8 220.92 336.78 221.36L334.9 268C334.864 268.914 334.477 269.78 333.82 270.417C333.163 271.054 332.285 271.413 331.37 271.42V271.42Z" fill="white"/>
<path opacity="0.3" d="M287.62 263.9L289.17 225.49C289.188 225.084 289.361 224.7 289.653 224.418C289.945 224.135 290.334 223.975 290.74 223.97H329.16C329.357 223.97 329.551 224.01 329.732 224.087C329.912 224.164 330.075 224.277 330.211 224.419C330.347 224.562 330.452 224.73 330.52 224.914C330.589 225.098 330.62 225.294 330.61 225.49L329.06 263.9C329.045 264.307 328.873 264.692 328.58 264.975C328.288 265.259 327.897 265.418 327.49 265.42H289.07C288.874 265.42 288.679 265.381 288.499 265.304C288.318 265.226 288.155 265.113 288.019 264.971C287.884 264.829 287.778 264.661 287.71 264.477C287.641 264.293 287.611 264.096 287.62 263.9Z" fill="#38CBA5"/>
<path d="M316.39 246.97L314.29 250.33L307.43 237.75L290.12 265.42H326.45L316.39 246.97Z" fill="#38CBA5"/>
<path d="M326.18 232.9C326.128 234.191 325.579 235.412 324.647 236.307C323.715 237.202 322.472 237.701 321.18 237.7C320.558 237.705 319.941 237.583 319.367 237.34C318.794 237.098 318.275 236.742 317.845 236.292C317.414 235.843 317.08 235.31 316.862 234.727C316.645 234.143 316.549 233.522 316.58 232.9C316.634 231.611 317.185 230.392 318.117 229.499C319.049 228.607 320.29 228.109 321.58 228.11C322.202 228.105 322.818 228.227 323.391 228.469C323.963 228.71 324.481 229.066 324.912 229.514C325.342 229.963 325.677 230.494 325.895 231.076C326.113 231.659 326.21 232.279 326.18 232.9V232.9Z" fill="white"/>
<path d="M93.31 139.66C94.57 145.49 95.92 156.19 91.87 160.23C95.13 163.29 99.37 166.81 106.36 166.83C113.35 166.85 112.04 162.11 110.15 159.64C103.57 158.29 103.65 153.44 104.71 148.85L93.31 139.66Z" fill="#FF8B7B"/>
<path d="M90.81 171.23C88.32 176.23 85.81 181.37 83.36 186.45C80.91 191.53 78.56 196.65 76.49 201.75C76.22 202.38 75.98 203.02 75.74 203.65L75.15 205.22C74.908 205.982 74.813 206.783 74.87 207.58C75.0753 209.946 75.6105 212.272 76.46 214.49C78.4124 219.578 80.7839 224.495 83.55 229.19L78.84 233C74.4991 228.68 70.7952 223.764 67.84 218.4C66.1974 215.427 65.0427 212.209 64.42 208.87C64.0567 206.816 64.0872 204.712 64.51 202.67L64.71 201.82C64.79 201.53 64.83 201.42 64.89 201.22L65.22 200.13C65.44 199.4 65.65 198.67 65.89 197.96C67.77 192.25 69.98 186.81 72.33 181.44C74.68 176.07 77.24 170.82 80 165.6L90.81 171.23Z" fill="#FF8B7B"/>
<path d="M82.11 160.76C74.76 163.06 70.29 178.76 70.29 178.76L85.42 191.46C88.3244 185.777 90.8564 179.911 93 173.9C96.56 163.66 91 158 82.11 160.76Z" fill="#38CBA5"/>
<g opacity="0.2">
<path opacity="0.2" d="M82.11 160.76C74.76 163.06 70.29 178.76 70.29 178.76L85.42 191.46C88.3244 185.777 90.8564 179.911 93 173.9C96.56 163.66 91 158 82.11 160.76Z" fill="black"/>
</g>
<path d="M81.8899 227.38L87.8899 232.91L79.7499 238C79.7499 238 74.8699 232.33 77.3699 229.26L81.8899 227.38Z" fill="#FF8B7B"/>
<path d="M88.51 241.4L85.34 242.69C84.7197 242.936 84.0319 242.954 83.3997 242.74C82.7676 242.525 82.2324 242.093 81.89 241.52L79.75 238L87.93 232.9L89.93 237.65C90.0865 237.989 90.1738 238.356 90.187 238.729C90.2001 239.102 90.1388 239.474 90.0066 239.823C89.8744 240.172 89.674 240.491 89.417 240.762C89.1601 241.033 88.8517 241.25 88.51 241.4V241.4Z" fill="#FF8B7B"/>
<path d="M119.76 160.07C107.86 158.07 93.3499 157.43 82.2599 160.59C80.7998 161.017 79.5617 161.993 78.8049 163.313C78.0481 164.632 77.8313 166.194 78.1999 167.67C84.8799 196.57 82.9499 225.76 83.5999 231.94L126.52 231.25C128.64 195.91 126.22 173.98 124.88 165.25C124.676 163.959 124.073 162.765 123.154 161.835C122.235 160.906 121.048 160.288 119.76 160.07Z" fill="#38CBA5"/>
<path d="M122.93 164.16C126.69 167.75 130.56 171.41 134.41 174.94C136.343 176.72 138.283 178.45 140.23 180.13C142.16 181.81 144.14 183.44 146.05 184.82C146.869 185.433 147.727 185.991 148.62 186.49L148.86 186.62H148.98H149.04H148.87H148.6C148.31 186.62 148.41 186.71 148.6 186.67C149.442 186.466 150.245 186.128 150.98 185.67C152.017 185.134 153.025 184.543 154 183.9C158.121 180.842 162.08 177.571 165.86 174.1L170.56 177.87C169.129 180.277 167.55 182.591 165.83 184.8C164.104 187.079 162.212 189.229 160.17 191.23C159.083 192.308 157.924 193.311 156.7 194.23C155.248 195.345 153.646 196.247 151.94 196.91C150.689 197.371 149.362 197.588 148.03 197.55C147.604 197.534 147.18 197.49 146.76 197.42L146.11 197.27L145.69 197.15L144.86 196.88L144.17 196.6C142.651 195.94 141.186 195.161 139.79 194.27C135.069 191.17 130.574 187.738 126.34 184C122.19 180.39 118.24 176.72 114.34 172.79L122.93 164.16Z" fill="#FF8B7B"/>
<path d="M109.52 167.4C108.45 175.03 126.52 189.58 126.52 189.58L136.25 174.66C136.25 174.66 134.25 170.85 127.04 164.09C119.64 157.15 110.7 159 109.52 167.4Z" fill="#38CBA5"/>
<path opacity="0.6" d="M315.13 198.74L176.41 207.83C175.971 207.861 175.531 207.803 175.116 207.659C174.7 207.514 174.319 207.287 173.994 206.99C173.669 206.694 173.409 206.334 173.227 205.933C173.046 205.533 172.948 205.1 172.94 204.66L171.6 151.41C171.585 150.502 171.917 149.623 172.528 148.952C173.14 148.281 173.985 147.869 174.89 147.8L313.62 138.71C314.058 138.679 314.498 138.737 314.913 138.881C315.328 139.026 315.709 139.253 316.032 139.55C316.356 139.847 316.616 140.206 316.796 140.607C316.976 141.008 317.073 141.441 317.08 141.88L318.43 195.13C318.445 196.039 318.112 196.92 317.498 197.591C316.884 198.263 316.037 198.674 315.13 198.74V198.74Z" fill="white"/>
<path d="M245.13 167.29L247.01 170.79C247.031 170.834 247.063 170.872 247.104 170.898C247.144 170.925 247.192 170.939 247.24 170.94L251.24 171.26C251.297 171.265 251.352 171.285 251.397 171.32C251.443 171.354 251.478 171.401 251.498 171.455C251.518 171.508 251.522 171.566 251.51 171.622C251.498 171.678 251.47 171.73 251.43 171.77L248.61 174.77C248.575 174.807 248.55 174.852 248.536 174.901C248.522 174.949 248.52 175.001 248.53 175.05L249.31 178.98C249.321 179.036 249.317 179.095 249.298 179.149C249.279 179.203 249.245 179.251 249.201 179.287C249.158 179.324 249.105 179.348 249.048 179.358C248.991 179.367 248.933 179.361 248.88 179.34L245.26 177.69C245.217 177.668 245.169 177.657 245.12 177.657C245.071 177.657 245.023 177.668 244.98 177.69L241.46 179.8C241.412 179.828 241.357 179.842 241.302 179.841C241.247 179.84 241.193 179.824 241.146 179.794C241.099 179.764 241.062 179.721 241.038 179.671C241.014 179.621 241.004 179.565 241.01 179.51L241.59 175.51C241.599 175.463 241.595 175.414 241.579 175.368C241.563 175.323 241.536 175.282 241.5 175.25L238.5 172.62C238.459 172.58 238.43 172.528 238.416 172.473C238.401 172.417 238.403 172.358 238.419 172.303C238.435 172.247 238.466 172.197 238.509 172.158C238.551 172.119 238.604 172.092 238.66 172.08L242.66 171.24C242.709 171.229 242.755 171.206 242.795 171.175C242.834 171.144 242.867 171.105 242.89 171.06L244.58 167.32C244.6 167.265 244.636 167.217 244.683 167.183C244.73 167.148 244.787 167.128 244.845 167.124C244.904 167.121 244.962 167.135 245.012 167.165C245.063 167.194 245.104 167.238 245.13 167.29V167.29Z" fill="#38CBA5"/>
<path d="M269.34 165.7L271.21 169.21C271.236 169.251 271.272 169.286 271.313 169.312C271.355 169.338 271.401 169.354 271.45 169.36L275.45 169.68C275.506 169.686 275.559 169.708 275.604 169.743C275.648 169.778 275.682 169.825 275.7 169.878C275.719 169.932 275.723 169.989 275.71 170.044C275.698 170.099 275.67 170.15 275.63 170.19L272.82 173.19C272.786 173.225 272.76 173.268 272.746 173.315C272.732 173.362 272.73 173.412 272.74 173.46L273.52 177.4C273.53 177.457 273.524 177.515 273.504 177.569C273.484 177.623 273.449 177.67 273.404 177.706C273.359 177.742 273.305 177.765 273.248 177.772C273.191 177.78 273.133 177.772 273.08 177.75L269.47 176.1C269.427 176.078 269.379 176.067 269.33 176.067C269.281 176.067 269.233 176.078 269.19 176.1L265.67 178.22C265.621 178.249 265.566 178.263 265.509 178.262C265.453 178.26 265.398 178.243 265.351 178.211C265.304 178.18 265.266 178.136 265.243 178.085C265.22 178.033 265.212 177.976 265.22 177.92L265.8 173.92C265.806 173.87 265.801 173.82 265.783 173.773C265.766 173.726 265.737 173.683 265.7 173.65L262.75 171C262.708 170.961 262.678 170.911 262.663 170.857C262.648 170.802 262.648 170.744 262.664 170.689C262.679 170.635 262.709 170.585 262.751 170.546C262.793 170.508 262.844 170.481 262.9 170.47L266.9 169.63C266.95 169.619 266.996 169.597 267.034 169.563C267.073 169.53 267.102 169.488 267.12 169.44L268.81 165.71C268.837 165.664 268.875 165.625 268.921 165.598C268.967 165.571 269.019 165.557 269.072 165.556C269.125 165.555 269.178 165.567 269.225 165.593C269.272 165.618 269.311 165.655 269.34 165.7V165.7Z" fill="#38CBA5"/>
<path d="M293.55 164.11L295.42 167.62C295.442 167.663 295.475 167.699 295.515 167.725C295.556 167.751 295.602 167.767 295.65 167.77L299.65 168.09C299.707 168.094 299.762 168.115 299.807 168.15C299.853 168.184 299.888 168.231 299.908 168.284C299.928 168.338 299.932 168.396 299.92 168.452C299.908 168.508 299.88 168.559 299.84 168.6L297.02 171.6C296.985 171.637 296.96 171.682 296.946 171.73C296.932 171.779 296.93 171.83 296.94 171.88L297.72 175.81C297.732 175.866 297.729 175.925 297.71 175.979C297.691 176.033 297.658 176.081 297.613 176.118C297.568 176.154 297.515 176.177 297.458 176.185C297.4 176.192 297.342 176.184 297.29 176.16L293.68 174.52C293.636 174.495 293.586 174.483 293.535 174.483C293.484 174.483 293.434 174.495 293.39 174.52L289.87 176.63C289.822 176.658 289.767 176.672 289.712 176.671C289.656 176.67 289.602 176.653 289.556 176.623C289.509 176.593 289.472 176.551 289.448 176.501C289.424 176.451 289.414 176.395 289.42 176.34L290 172.34C290.009 172.293 290.005 172.244 289.989 172.198C289.973 172.153 289.946 172.112 289.91 172.08L286.91 169.45C286.869 169.409 286.84 169.358 286.826 169.302C286.811 169.246 286.812 169.188 286.829 169.132C286.845 169.077 286.876 169.027 286.919 168.988C286.961 168.949 287.013 168.922 287.07 168.91L291.07 168.07C291.12 168.06 291.166 168.038 291.206 168.007C291.246 167.976 291.278 167.936 291.3 167.89L292.99 164.15C293.011 164.095 293.047 164.047 293.095 164.012C293.142 163.977 293.198 163.956 293.257 163.952C293.316 163.948 293.375 163.96 293.427 163.988C293.478 164.016 293.521 164.059 293.55 164.11V164.11Z" fill="#38CBA5"/>
<path d="M220.93 168.87L222.8 172.38C222.826 172.421 222.862 172.456 222.903 172.482C222.945 172.508 222.991 172.524 223.04 172.53L227.04 172.85C227.096 172.856 227.15 172.878 227.194 172.913C227.238 172.948 227.272 172.995 227.29 173.048C227.309 173.102 227.313 173.159 227.3 173.214C227.288 173.269 227.26 173.32 227.22 173.36L224.41 176.36C224.376 176.395 224.35 176.438 224.336 176.485C224.322 176.532 224.32 176.582 224.33 176.63L225.11 180.57C225.12 180.627 225.114 180.685 225.094 180.739C225.074 180.793 225.039 180.84 224.994 180.876C224.949 180.912 224.895 180.935 224.838 180.942C224.781 180.95 224.723 180.942 224.67 180.92L221.06 179.27C221.017 179.248 220.969 179.237 220.92 179.237C220.871 179.237 220.823 179.248 220.78 179.27L217.26 181.39C217.211 181.419 217.156 181.433 217.099 181.432C217.043 181.43 216.988 181.413 216.941 181.381C216.894 181.35 216.856 181.306 216.833 181.255C216.81 181.203 216.802 181.146 216.81 181.09L217.39 177.09C217.396 177.04 217.391 176.99 217.373 176.943C217.356 176.896 217.327 176.854 217.29 176.82L214.34 174.19C214.299 174.151 214.268 174.102 214.253 174.047C214.238 173.992 214.238 173.934 214.254 173.879C214.269 173.825 214.299 173.775 214.341 173.736C214.383 173.698 214.434 173.671 214.49 173.66L218.49 172.82C218.538 172.808 218.582 172.786 218.62 172.755C218.658 172.724 218.689 172.684 218.71 172.64L220.4 168.9C220.425 168.853 220.462 168.813 220.507 168.784C220.552 168.755 220.603 168.738 220.657 168.735C220.71 168.732 220.763 168.743 220.811 168.767C220.859 168.79 220.9 168.826 220.93 168.87V168.87Z" fill="#38CBA5"/>
<path d="M196.72 170.46L198.6 173.96C198.619 174.005 198.652 174.043 198.692 174.069C198.733 174.096 198.781 174.11 198.83 174.11L202.83 174.43C202.886 174.436 202.939 174.458 202.984 174.493C203.028 174.528 203.062 174.575 203.08 174.628C203.099 174.681 203.103 174.739 203.09 174.794C203.078 174.849 203.05 174.9 203.01 174.94L200.2 177.94C200.165 177.977 200.14 178.021 200.126 178.07C200.112 178.119 200.11 178.17 200.12 178.22L200.9 182.16C200.909 182.215 200.903 182.272 200.883 182.325C200.863 182.377 200.83 182.424 200.786 182.459C200.742 182.494 200.69 182.518 200.635 182.527C200.579 182.536 200.522 182.53 200.47 182.51L196.85 180.86C196.807 180.838 196.759 180.826 196.71 180.826C196.661 180.826 196.613 180.838 196.57 180.86L193.05 183C193.003 183.032 192.947 183.05 192.89 183.051C192.833 183.052 192.776 183.036 192.728 183.005C192.68 182.974 192.642 182.929 192.619 182.877C192.597 182.824 192.59 182.766 192.6 182.71L193.18 178.71C193.189 178.662 193.185 178.614 193.169 178.568C193.153 178.522 193.126 178.482 193.09 178.45L190.09 175.82C190.048 175.78 190.019 175.73 190.004 175.674C189.989 175.619 189.99 175.56 190.007 175.506C190.023 175.451 190.055 175.401 190.098 175.363C190.141 175.325 190.193 175.3 190.25 175.29L194.25 174.44C194.299 174.431 194.345 174.41 194.383 174.379C194.422 174.347 194.452 174.306 194.47 174.26L196.17 170.52C196.187 170.463 196.22 170.413 196.265 170.375C196.311 170.337 196.366 170.313 196.425 170.307C196.484 170.301 196.543 170.312 196.596 170.339C196.648 170.366 196.691 170.408 196.72 170.46V170.46Z" fill="#38CBA5"/>
<path d="M164.84 175.2L170.38 167.9L176.52 174.75C176.52 174.75 173 180.96 167.33 179.29L164.84 175.2Z" fill="#FF8B7B"/>
<path d="M178.34 165.34L179.95 169.34C180.089 169.671 180.131 170.035 180.071 170.39C180.011 170.744 179.851 171.074 179.61 171.34L176.52 174.77L170.38 167.92L175.64 164.47C175.868 164.322 176.126 164.227 176.395 164.192C176.664 164.156 176.938 164.181 177.197 164.264C177.455 164.347 177.692 164.487 177.89 164.673C178.087 164.859 178.241 165.087 178.34 165.34V165.34Z" fill="#FF8B7B"/>
<path d="M113.33 132.52C113.33 133.17 113.73 133.68 114.15 133.67C114.57 133.66 114.89 133.12 114.86 132.47C114.83 131.82 114.46 131.31 114.04 131.32C113.62 131.33 113.3 131.87 113.33 132.52Z" fill="#263238"/>
<path d="M113.75 133C114.618 134.952 115.745 136.779 117.1 138.43C116.671 138.762 116.175 138.995 115.646 139.112C115.117 139.23 114.569 139.229 114.04 139.11L113.75 133Z" fill="#FF5652"/>
<path d="M112 129.19C112.061 129.197 112.122 129.187 112.179 129.163C112.235 129.138 112.284 129.099 112.32 129.05C112.6 128.669 112.968 128.363 113.394 128.157C113.819 127.952 114.288 127.853 114.76 127.87C114.81 127.874 114.86 127.868 114.908 127.853C114.955 127.838 115 127.813 115.038 127.78C115.076 127.748 115.107 127.708 115.13 127.663C115.153 127.619 115.166 127.57 115.17 127.52C115.173 127.419 115.137 127.32 115.071 127.244C115.004 127.168 114.911 127.12 114.81 127.11C114.215 127.082 113.622 127.2 113.083 127.455C112.544 127.709 112.076 128.092 111.72 128.57C111.679 128.626 111.653 128.691 111.646 128.76C111.639 128.829 111.65 128.899 111.678 128.962C111.707 129.025 111.752 129.08 111.808 129.12C111.865 129.16 111.931 129.184 112 129.19Z" fill="#263238"/>
<path d="M91.5299 130.83C92.3899 138.76 92.5299 143.44 96.6899 147.38C103.02 153.32 112.69 149.38 114.18 141.38C115.55 134.19 113.91 122.38 105.99 119.52C104.264 118.859 102.397 118.656 100.57 118.93C98.7422 119.205 97.0169 119.947 95.5614 121.086C94.1059 122.224 92.9697 123.72 92.2633 125.427C91.5568 127.135 91.3042 128.996 91.5299 130.83V130.83Z" fill="#FF8B7B"/>
<path d="M107.44 135.33C108.44 138.39 106.33 144.94 105.67 146.94C105.01 148.94 102.22 150.7 97.33 150.24C96.4786 150.183 95.6474 149.954 94.8866 149.568C94.1258 149.181 93.4509 148.645 92.9026 147.991C92.3543 147.337 91.9438 146.58 91.6959 145.763C91.448 144.946 91.3678 144.088 91.46 143.24C89.28 142.91 86.94 138.92 87.06 136.15C87.18 133.38 83.06 130.5 82.56 127.8C82.06 125.1 84.33 121.35 87.33 123.24C85.39 121.24 85.22 116.24 91.17 115.24C95.92 114.49 100.83 117.02 104.5 115.58C108.17 114.14 113.03 113.19 114.1 116.13C116.1 114.96 119.1 117.3 118.1 120.91C117.1 124.52 109.77 126.63 109.77 126.63C109.77 126.63 112.5 133.72 107.44 135.33Z" fill="#263238"/>
<path d="M87.78 124.83C87.6331 124.83 87.488 124.798 87.3549 124.736C87.2218 124.674 87.1041 124.583 87.01 124.47C85.19 122.27 82.77 117.09 86.57 113.24C86.7574 113.054 87.0108 112.949 87.275 112.949C87.5392 112.949 87.7927 113.054 87.98 113.24C88.0738 113.333 88.1482 113.444 88.1989 113.565C88.2497 113.687 88.2758 113.818 88.2758 113.95C88.2758 114.082 88.2497 114.213 88.1989 114.335C88.1482 114.456 88.0738 114.567 87.98 114.66C84.5 118.18 88.37 123.01 88.54 123.21C88.6587 123.356 88.7337 123.533 88.7562 123.72C88.7788 123.907 88.7481 124.097 88.6676 124.267C88.5872 124.438 88.4602 124.582 88.3014 124.683C88.1426 124.784 87.9584 124.839 87.77 124.84L87.78 124.83Z" fill="#263238"/>
<path d="M88.67 125.89C88.5198 125.89 88.3716 125.855 88.2366 125.789C88.1016 125.723 87.9831 125.628 87.89 125.51C87.72 125.31 83.8 120.51 79.63 123.21C79.4059 123.353 79.134 123.402 78.8743 123.345C78.6146 123.287 78.3882 123.129 78.245 122.905C78.1018 122.681 78.0534 122.409 78.1106 122.15C78.1678 121.89 78.3259 121.663 78.55 121.52C83.1 118.6 87.67 122.04 89.45 124.26C89.5325 124.363 89.5938 124.481 89.6304 124.608C89.6671 124.735 89.6783 124.867 89.6634 124.999C89.6485 125.13 89.6079 125.256 89.5438 125.372C89.4797 125.487 89.3934 125.588 89.29 125.67C89.114 125.811 88.8955 125.889 88.67 125.89Z" fill="#263238"/>
<path d="M103.21 136.16C103.82 137.836 105.062 139.207 106.67 139.98C108.81 140.98 110.25 139.2 109.96 136.98C109.71 134.98 108.28 132.08 105.96 131.98C103.64 131.88 102.49 134.1 103.21 136.16Z" fill="#FF8B7B"/>
<path d="M56.5099 397.9C56.4924 397.87 56.4832 397.835 56.4832 397.8C56.4832 397.765 56.4924 397.731 56.5099 397.7C56.5263 397.664 56.5534 397.635 56.5874 397.615C56.6215 397.595 56.6608 397.587 56.6999 397.59C57.1099 397.59 60.6999 397.89 61.2899 398.86C61.3436 398.951 61.3719 399.055 61.3719 399.16C61.3719 399.266 61.3436 399.369 61.2899 399.46V399.46C61.2258 399.618 61.1223 399.757 60.9893 399.864C60.8563 399.971 60.6981 400.042 60.5299 400.07C59.3699 400.27 57.5299 398.81 56.5299 397.92L56.5099 397.9ZM60.8799 399C60.4599 398.51 58.6099 398.17 57.2099 398C58.5999 399.17 59.7799 399.79 60.4299 399.67C60.5407 399.652 60.645 399.606 60.7326 399.536C60.8202 399.466 60.8882 399.374 60.9299 399.27C60.9501 399.233 60.9606 399.192 60.9606 399.15C60.9606 399.108 60.9501 399.067 60.9299 399.03L60.8799 399Z" fill="#38CBA5"/>
<path d="M48.02 397.26L55.84 399.11L63.37 381.82L55.55 379.97L48.02 397.26Z" fill="#FF8B7B"/>
<path d="M56.76 397.76L48.82 393.89C48.6835 393.819 48.5252 393.802 48.3768 393.843C48.2285 393.884 48.101 393.979 48.02 394.11L44.22 400.11C44.1288 400.268 44.0712 400.443 44.0507 400.625C44.0302 400.806 44.0471 400.99 44.1006 401.164C44.1541 401.338 44.2429 401.5 44.3615 401.639C44.4801 401.777 44.6259 401.89 44.79 401.97C47.67 403.31 48.68 403.53 52.28 405.29C56.49 407.34 56.28 408.52 61.21 410.93C64.21 412.38 66.11 409.65 64.97 408.75C61.9537 406.193 59.655 402.895 58.3 399.18C57.9847 398.529 57.4344 398.022 56.76 397.76V397.76Z" fill="#263238"/>
<path opacity="0.2" d="M63.37 381.82L59.27 391.24L51.66 388.89L55.54 379.97L63.37 381.82Z" fill="black"/>
<path d="M73.1599 308.66C79.3399 272.92 78.3799 240 83.5999 231.94L111.96 231.48C111.96 231.48 97.8299 288.92 91.2099 312.56C84.3399 337.13 63.5999 387.67 63.5999 387.67L51.1699 383.83C51.1699 383.83 63.4199 336 73.1599 308.66Z" fill="#263238"/>
<path opacity="0.2" d="M100.5 254.83C94.41 262.83 94.82 285.23 95.5 296.69C97.9 287.55 100.57 277.11 103.04 267.3L100.5 254.83Z" fill="black"/>
<path d="M107.65 409.13C107.616 409.116 107.586 409.091 107.566 409.06C107.545 409.029 107.534 408.992 107.534 408.955C107.534 408.918 107.545 408.881 107.566 408.85C107.586 408.819 107.616 408.795 107.65 408.78C108.01 408.59 111.17 406.9 112.16 407.43C112.255 407.477 112.336 407.548 112.395 407.636C112.455 407.723 112.491 407.825 112.5 407.93V407.93C112.531 408.1 112.518 408.274 112.462 408.437C112.406 408.6 112.309 408.746 112.18 408.86C111.33 409.66 109.02 409.38 107.72 409.14L107.65 409.13ZM111.88 407.74C111.27 407.54 109.55 408.23 108.3 408.86C110.08 409.13 111.4 409.03 111.88 408.58C111.96 408.502 112.02 408.406 112.055 408.3C112.09 408.193 112.099 408.08 112.08 407.97C112.08 407.928 112.067 407.886 112.044 407.851C112.021 407.815 111.989 407.787 111.95 407.77L111.88 407.74Z" fill="#38CBA5"/>
<path d="M107.65 409.13H107.6C107.572 409.112 107.55 409.086 107.536 409.056C107.522 409.026 107.516 408.993 107.52 408.96C107.52 408.86 107.65 406.7 108.64 405.85C108.774 405.727 108.932 405.632 109.104 405.572C109.276 405.512 109.458 405.487 109.64 405.5V405.5C110.16 405.5 110.32 405.81 110.37 406.02C110.55 406.93 108.7 408.69 107.75 409.14C107.716 409.147 107.682 409.143 107.65 409.13V409.13ZM109.85 405.9H109.66C109.521 405.887 109.38 405.903 109.247 405.948C109.115 405.993 108.993 406.065 108.89 406.16C108.301 406.863 107.951 407.735 107.89 408.65C108.89 408.04 110.1 406.65 109.99 406.11C110 406 110 406 109.85 405.9V405.9Z" fill="#38CBA5"/>
<path d="M99.13 410.01L107.15 409.89L107.49 391.27L99.48 391.39L99.13 410.01Z" fill="#FF8B7B"/>
<path d="M107.77 409L99.0199 409.14C98.8658 409.137 98.7164 409.194 98.6028 409.298C98.4893 409.402 98.4202 409.546 98.4099 409.7L97.8199 416.85C97.8089 417.033 97.8358 417.216 97.8989 417.388C97.962 417.56 98.0601 417.718 98.1868 417.85C98.3136 417.982 98.4664 418.087 98.6355 418.158C98.8047 418.228 98.9866 418.263 99.1699 418.26C102.32 418.16 106.85 417.9 110.82 417.84C115.45 417.77 115.01 417.96 120.45 417.84C123.73 417.79 124.19 414.45 122.77 414.17C116.31 412.89 115.66 412.82 109.77 409.56C109.162 409.206 108.473 409.013 107.77 409Z" fill="#263238"/>
<path opacity="0.2" d="M107.49 391.27L107.32 400.87L99.2999 401L99.4699 391.4L107.49 391.27Z" fill="black"/>
<path d="M101.37 310.92C100.14 273.47 92.28 252 93 231.79L126.49 231.25C126.49 231.25 123.14 289.41 120.69 313.83C118.15 339.22 110.32 397.65 110.32 397.65L96.72 397.86C96.72 397.86 98 342.78 101.37 310.92Z" fill="#263238"/>
<path opacity="0.3" d="M107.93 396.19C107.897 396.187 107.865 396.178 107.836 396.163C107.806 396.148 107.78 396.128 107.759 396.103C107.737 396.078 107.721 396.049 107.711 396.017C107.701 395.986 107.697 395.953 107.7 395.92C108.61 386.6 110.28 372.76 112.06 358.12C113.99 342.12 116 325.58 117.13 313.81C119.29 291.32 122.8 243.63 122.9 238.21C121.631 237.958 120.443 237.4 119.44 236.584C118.436 235.769 117.646 234.72 117.14 233.53C117.129 233.498 117.125 233.465 117.127 233.432C117.129 233.398 117.138 233.366 117.153 233.336C117.167 233.306 117.188 233.28 117.214 233.258C117.239 233.236 117.268 233.22 117.3 233.21C117.33 233.199 117.362 233.194 117.394 233.196C117.426 233.197 117.458 233.205 117.487 233.219C117.516 233.233 117.541 233.253 117.563 233.277C117.584 233.301 117.6 233.329 117.61 233.36C118.101 234.5 118.869 235.5 119.846 236.267C120.822 237.033 121.976 237.543 123.2 237.75C123.258 237.761 123.311 237.792 123.349 237.838C123.387 237.883 123.409 237.94 123.41 238C123.41 242.27 119.82 291 117.63 313.86C116.49 325.64 114.49 342.18 112.55 358.17C110.78 372.82 109.11 386.65 108.2 395.97C108.198 396.002 108.188 396.034 108.173 396.063C108.158 396.092 108.138 396.117 108.112 396.138C108.087 396.158 108.058 396.174 108.026 396.183C107.995 396.192 107.962 396.194 107.93 396.19V396.19Z" fill="white"/>
<path d="M111.18 399.26L95.02 399.51L94.34 394.28L112.38 393.72L111.18 399.26Z" fill="#263238"/>
<path d="M64.54 390.76L49.02 385.99L49.65 380.73L67.03 385.78L64.54 390.76Z" fill="#263238"/>
</g>
<defs>
<clipPath id="clip0_655_167">
<rect width="500" height="500" fill="white"/>
</clipPath>
</defs>
</svg>
